<svg width="252" height="238" viewBox="0 0 252 238" fill="none" xmlns="http://www.w3.org/2000/svg">
<g clip-path="url(#clip0_1004_1540)">
<g filter="url(#filter0_d_1004_1540)">
<path d="M208.45 0H31.0499C14.012 0 0.199951 13.812 0.199951 30.85V192.22C0.199951 209.258 14.012 223.07 31.0499 223.07H208.45C225.488 223.07 239.3 209.258 239.3 192.22V30.85C239.3 13.812 225.488 0 208.45 0Z" fill="#D5ECF2"/>
</g>
<mask id="mask0_1004_1540" style="mask-type:luminance" maskUnits="userSpaceOnUse" x="0" y="0" width="240" height="224">
<path d="M208.45 0H31.0499C14.012 0 0.199951 13.812 0.199951 30.85V192.22C0.199951 209.258 14.012 223.07 31.0499 223.07H208.45C225.488 223.07 239.3 209.258 239.3 192.22V30.85C239.3 13.812 225.488 0 208.45 0Z" fill="white"/>
</mask>
<g mask="url(#mask0_1004_1540)">
<path d="M18.97 248C22.75 207.12 25.34 166.09 30.74 125.42C34.46 97.3602 40.74 69.4503 48.22 42.1203C64.39 -16.8997 140.33 -48.7998 199.59 -15.3498C253.82 15.2602 271.8 79.9202 241.55 133.8C230.77 153.01 213.32 164.97 194.95 175.72C152.6 200.53 107.12 218.37 61.28 235.36C48.12 240.24 34.8 244.68 21.56 249.32C20.7 248.88 19.83 248.43 18.97 247.99V248ZM197.32 116.94C218.17 89.2802 212.88 50.8302 185.39 30.0602C157.46 8.97023 119.08 14.3703 98.06 42.3703C77.45 69.8203 82.95 108.8 110.31 129.38C137.65 149.94 176.66 144.36 197.32 116.94Z" fill="#E1F2F7"/>
</g>
<path d="M18.9643 123.428V121.059H35.5025V123.428H28.5685V143.11H25.8983V123.428H18.9643ZM47.4512 136.348V126.572H49.9923V143.11H47.4512V140.31H47.279C46.8913 141.15 46.2884 141.864 45.4701 142.453C44.6518 143.034 43.6182 143.325 42.3692 143.325C41.3355 143.325 40.4168 143.099 39.6128 142.647C38.8089 142.187 38.1772 141.498 37.7178 140.58C37.2584 139.654 37.0287 138.487 37.0287 137.08V126.572H39.5698V136.908C39.5698 138.114 39.9071 139.076 40.5819 139.794C41.2638 140.511 42.1323 140.87 43.1875 140.87C43.8191 140.87 44.4616 140.709 45.1148 140.386C45.7752 140.063 46.3279 139.568 46.7729 138.9C47.2251 138.232 47.4512 137.382 47.4512 136.348ZM60.8912 143.454C59.513 143.454 58.2963 143.106 57.2412 142.41C56.186 141.707 55.3605 140.716 54.7647 139.438C54.169 138.153 53.8711 136.635 53.8711 134.884C53.8711 133.147 54.169 131.639 54.7647 130.362C55.3605 129.084 56.1896 128.097 57.2519 127.401C58.3143 126.704 59.5417 126.356 60.9343 126.356C62.011 126.356 62.8616 126.536 63.4861 126.895C64.1177 127.246 64.5986 127.648 64.9288 128.101C65.2662 128.546 65.5282 128.912 65.7148 129.199H65.9302V121.059H68.4712V143.11H66.0163V140.569H65.7148C65.5282 140.87 65.2626 141.251 64.9181 141.71C64.5735 142.162 64.0818 142.568 63.443 142.927C62.8041 143.279 61.9535 143.454 60.8912 143.454ZM61.2357 141.172C62.255 141.172 63.1164 140.906 63.8198 140.375C64.5233 139.837 65.058 139.094 65.4241 138.146C65.7902 137.192 65.9732 136.09 65.9732 134.841C65.9732 133.606 65.7938 132.526 65.4349 131.6C65.076 130.667 64.5448 129.942 63.8414 129.425C63.1379 128.901 62.2694 128.639 61.2357 128.639C60.159 128.639 59.2618 128.915 58.544 129.468C57.8334 130.014 57.2986 130.756 56.9397 131.697C56.588 132.63 56.4121 133.678 56.4121 134.841C56.4121 136.018 56.5916 137.087 56.9505 138.049C57.3165 139.004 57.8549 139.765 58.5655 140.332C59.2833 140.892 60.1734 141.172 61.2357 141.172ZM80.1965 143.454C78.7035 143.454 77.3935 143.099 76.2665 142.388C75.1468 141.678 74.271 140.684 73.6394 139.406C73.0149 138.128 72.7026 136.635 72.7026 134.927C72.7026 133.204 73.0149 131.7 73.6394 130.416C74.271 129.131 75.1468 128.133 76.2665 127.422C77.3935 126.712 78.7035 126.356 80.1965 126.356C81.6895 126.356 82.9959 126.712 84.1157 127.422C85.2427 128.133 86.1184 129.131 86.7429 130.416C87.3745 131.7 87.6904 133.204 87.6904 134.927C87.6904 136.635 87.3745 138.128 86.7429 139.406C86.1184 140.684 85.2427 141.678 84.1157 142.388C82.9959 143.099 81.6895 143.454 80.1965 143.454ZM80.1965 141.172C81.3306 141.172 82.2638 140.881 82.9959 140.3C83.7281 139.718 84.27 138.954 84.6218 138.006C84.9735 137.059 85.1493 136.032 85.1493 134.927C85.1493 133.821 84.9735 132.791 84.6218 131.837C84.27 130.882 83.7281 130.11 82.9959 129.522C82.2638 128.933 81.3306 128.639 80.1965 128.639C79.0624 128.639 78.1292 128.933 77.3971 129.522C76.6649 130.11 76.123 130.882 75.7712 131.837C75.4195 132.791 75.2437 133.821 75.2437 134.927C75.2437 136.032 75.4195 137.059 75.7712 138.006C76.123 138.954 76.6649 139.718 77.3971 140.3C78.1292 140.881 79.0624 141.172 80.1965 141.172ZM107.031 143.454C105.437 143.454 104.063 143.103 102.907 142.399C101.758 141.689 100.872 140.698 100.247 139.428C99.6301 138.15 99.3215 136.664 99.3215 134.97C99.3215 133.276 99.6301 131.783 100.247 130.491C100.872 129.192 101.74 128.18 102.853 127.455C103.973 126.722 105.279 126.356 106.772 126.356C107.634 126.356 108.484 126.5 109.324 126.787C110.164 127.074 110.928 127.541 111.617 128.187C112.307 128.826 112.856 129.673 113.265 130.728C113.674 131.783 113.879 133.082 113.879 134.625V135.702H101.13V133.506H111.294C111.294 132.573 111.108 131.74 110.735 131.008C110.368 130.276 109.844 129.698 109.163 129.274C108.488 128.851 107.691 128.639 106.772 128.639C105.76 128.639 104.884 128.89 104.145 129.393C103.413 129.888 102.849 130.534 102.455 131.331C102.06 132.127 101.862 132.982 101.862 133.893V135.358C101.862 136.607 102.078 137.665 102.509 138.534C102.946 139.395 103.553 140.052 104.328 140.504C105.103 140.949 106.004 141.172 107.031 141.172C107.698 141.172 108.301 141.078 108.84 140.892C109.385 140.698 109.855 140.411 110.25 140.03C110.645 139.643 110.95 139.162 111.165 138.588L113.62 139.277C113.362 140.109 112.927 140.842 112.317 141.473C111.707 142.098 110.953 142.586 110.056 142.938C109.159 143.282 108.15 143.454 107.031 143.454ZM117.744 143.11V126.572H120.199V129.156H120.414C120.759 128.273 121.315 127.587 122.083 127.099C122.851 126.604 123.773 126.356 124.85 126.356C125.941 126.356 126.849 126.604 127.574 127.099C128.306 127.587 128.877 128.273 129.286 129.156H129.458C129.882 128.302 130.517 127.623 131.364 127.121C132.211 126.611 133.227 126.356 134.411 126.356C135.89 126.356 137.099 126.819 138.04 127.745C138.98 128.664 139.45 130.096 139.45 132.041V143.11H136.909V132.041C136.909 130.821 136.575 129.949 135.908 129.425C135.24 128.901 134.454 128.639 133.55 128.639C132.387 128.639 131.486 128.991 130.847 129.694C130.209 130.39 129.889 131.273 129.889 132.343V143.11H127.305V131.783C127.305 130.843 127 130.085 126.39 129.511C125.78 128.93 124.994 128.639 124.032 128.639C123.371 128.639 122.754 128.815 122.18 129.167C121.613 129.518 121.153 130.006 120.802 130.631C120.457 131.248 120.285 131.962 120.285 132.773V143.11H117.744ZM163.046 136.348V126.572H165.587V143.11H163.046V140.31H162.874C162.486 141.15 161.883 141.864 161.065 142.453C160.247 143.034 159.213 143.325 157.964 143.325C156.931 143.325 156.012 143.099 155.208 142.647C154.404 142.187 153.772 141.498 153.313 140.58C152.853 139.654 152.624 138.487 152.624 137.08V126.572H155.165V136.908C155.165 138.114 155.502 139.076 156.177 139.794C156.859 140.511 157.727 140.87 158.782 140.87C159.414 140.87 160.057 140.709 160.71 140.386C161.37 140.063 161.923 139.568 162.368 138.9C162.82 138.232 163.046 137.382 163.046 136.348ZM170.241 143.11V126.572H172.696V129.156H172.912C173.256 128.273 173.812 127.587 174.58 127.099C175.348 126.604 176.271 126.356 177.348 126.356C178.439 126.356 179.347 126.604 180.072 127.099C180.804 127.587 181.374 128.273 181.784 129.156H181.956C182.379 128.302 183.015 127.623 183.862 127.121C184.709 126.611 185.724 126.356 186.909 126.356C188.387 126.356 189.597 126.819 190.537 127.745C191.478 128.664 191.948 130.096 191.948 132.041V143.11H189.407V132.041C189.407 130.821 189.073 129.949 188.405 129.425C187.738 128.901 186.952 128.639 186.047 128.639C184.884 128.639 183.984 128.991 183.345 129.694C182.706 130.39 182.387 131.273 182.387 132.343V143.11H179.802V131.783C179.802 130.843 179.497 130.085 178.887 129.511C178.277 128.93 177.491 128.639 176.529 128.639C175.869 128.639 175.252 128.815 174.677 129.167C174.11 129.518 173.651 130.006 173.299 130.631C172.955 131.248 172.782 131.962 172.782 132.773V143.11H170.241Z" fill="#203A4A"/>
<path d="M71.9201 158.646L69.6375 159.292C69.4939 158.911 69.2822 158.542 69.0022 158.183C68.7295 157.817 68.3562 157.515 67.8825 157.278C67.4087 157.041 66.8022 156.923 66.0628 156.923C65.0507 156.923 64.2073 157.156 63.5326 157.623C62.865 158.082 62.5312 158.667 62.5312 159.378C62.5312 160.009 62.7609 160.508 63.2203 160.874C63.6797 161.241 64.3975 161.546 65.3737 161.79L67.8286 162.393C69.3073 162.751 70.4091 163.301 71.1341 164.04C71.8591 164.772 72.2216 165.716 72.2216 166.872C72.2216 167.819 71.9488 168.666 71.4033 169.413C70.8649 170.159 70.1112 170.748 69.1422 171.179C68.1732 171.609 67.0462 171.825 65.7614 171.825C64.0745 171.825 62.6784 171.458 61.573 170.726C60.4676 169.994 59.7677 168.925 59.4734 167.518L61.8852 166.915C62.1149 167.805 62.5492 168.472 63.188 168.917C63.8341 169.362 64.6775 169.585 65.7183 169.585C66.9027 169.585 67.843 169.334 68.5393 168.831C69.2427 168.322 69.5944 167.712 69.5944 167.001C69.5944 166.427 69.3934 165.946 68.9915 165.558C68.5895 165.163 67.9722 164.869 67.1395 164.675L64.3832 164.029C62.8686 163.67 61.756 163.114 61.0454 162.36C60.3419 161.599 59.9902 160.648 59.9902 159.507C59.9902 158.574 60.2522 157.748 60.7762 157.031C61.3074 156.313 62.0288 155.749 62.9404 155.34C63.8592 154.931 64.9 154.726 66.0628 154.726C67.6994 154.726 68.9843 155.085 69.9174 155.803C70.8578 156.521 71.5253 157.468 71.9201 158.646ZM82.7652 171.825C81.2722 171.825 79.9622 171.469 78.8352 170.759C77.7155 170.048 76.8398 169.054 76.2081 167.776C75.5836 166.498 75.2714 165.005 75.2714 163.297C75.2714 161.574 75.5836 160.071 76.2081 158.786C76.8398 157.501 77.7155 156.503 78.8352 155.792C79.9622 155.082 81.2722 154.726 82.7652 154.726C84.2582 154.726 85.5646 155.082 86.6844 155.792C87.8114 156.503 88.6871 157.501 89.3116 158.786C89.9432 160.071 90.2591 161.574 90.2591 163.297C90.2591 165.005 89.9432 166.498 89.3116 167.776C88.6871 169.054 87.8114 170.048 86.6844 170.759C85.5646 171.469 84.2582 171.825 82.7652 171.825ZM82.7652 169.542C83.8993 169.542 84.8325 169.251 85.5646 168.67C86.2968 168.088 86.8387 167.324 87.1905 166.376C87.5422 165.429 87.7181 164.402 87.7181 163.297C87.7181 162.192 87.5422 161.162 87.1905 160.207C86.8387 159.252 86.2968 158.481 85.5646 157.892C84.8325 157.303 83.8993 157.009 82.7652 157.009C81.6311 157.009 80.6979 157.303 79.9658 157.892C79.2336 158.481 78.6917 159.252 78.34 160.207C77.9882 161.162 77.8124 162.192 77.8124 163.297C77.8124 164.402 77.9882 165.429 78.34 166.376C78.6917 167.324 79.2336 168.088 79.9658 168.67C80.6979 169.251 81.6311 169.542 82.7652 169.542ZM81.6024 152.702L84.2295 147.706H87.2012L83.8419 152.702H81.6024ZM105.206 149.429V171.48H102.665V149.429H105.206ZM116.579 171.825C115.086 171.825 113.776 171.469 112.649 170.759C111.529 170.048 110.654 169.054 110.022 167.776C109.398 166.498 109.085 165.005 109.085 163.297C109.085 161.574 109.398 160.071 110.022 158.786C110.654 157.501 111.529 156.503 112.649 155.792C113.776 155.082 115.086 154.726 116.579 154.726C118.072 154.726 119.379 155.082 120.498 155.792C121.625 156.503 122.501 157.501 123.125 158.786C123.757 160.071 124.073 161.574 124.073 163.297C124.073 165.005 123.757 166.498 123.125 167.776C122.501 169.054 121.625 170.048 120.498 170.759C119.379 171.469 118.072 171.825 116.579 171.825ZM116.579 169.542C117.713 169.542 118.646 169.251 119.379 168.67C120.111 168.088 120.653 167.324 121.004 166.376C121.356 165.429 121.532 164.402 121.532 163.297C121.532 162.192 121.356 161.162 121.004 160.207C120.653 159.252 120.111 158.481 119.379 157.892C118.646 157.303 117.713 157.009 116.579 157.009C115.445 157.009 114.512 157.303 113.78 157.892C113.048 158.481 112.506 159.252 112.154 160.207C111.802 161.162 111.626 162.192 111.626 163.297C111.626 164.402 111.802 165.429 112.154 166.376C112.506 167.324 113.048 168.088 113.78 168.67C114.512 169.251 115.445 169.542 116.579 169.542ZM134.67 171.825C133.12 171.825 131.785 171.458 130.665 170.726C129.545 169.994 128.684 168.986 128.081 167.701C127.478 166.416 127.177 164.948 127.177 163.297C127.177 161.617 127.485 160.135 128.103 158.85C128.727 157.558 129.596 156.55 130.708 155.825C131.828 155.093 133.134 154.726 134.627 154.726C135.79 154.726 136.838 154.942 137.771 155.372C138.705 155.803 139.469 156.406 140.065 157.181C140.661 157.957 141.03 158.861 141.174 159.895H138.633C138.439 159.141 138.008 158.473 137.341 157.892C136.68 157.303 135.79 157.009 134.67 157.009C133.68 157.009 132.811 157.267 132.065 157.784C131.325 158.294 130.748 159.015 130.331 159.948C129.922 160.874 129.718 161.962 129.718 163.211C129.718 164.489 129.919 165.601 130.321 166.549C130.73 167.496 131.304 168.232 132.043 168.756C132.79 169.28 133.666 169.542 134.67 169.542C135.331 169.542 135.93 169.427 136.469 169.197C137.007 168.968 137.463 168.637 137.836 168.207C138.209 167.776 138.475 167.259 138.633 166.656H141.174C141.03 167.633 140.675 168.512 140.108 169.294C139.548 170.069 138.805 170.687 137.879 171.146C136.96 171.598 135.891 171.825 134.67 171.825ZM149.755 171.868C148.707 171.868 147.756 171.67 146.902 171.275C146.048 170.873 145.369 170.296 144.867 169.542C144.364 168.781 144.113 167.862 144.113 166.786C144.113 165.838 144.3 165.07 144.673 164.481C145.046 163.886 145.545 163.419 146.17 163.082C146.794 162.744 147.483 162.493 148.237 162.328C148.998 162.156 149.762 162.019 150.53 161.919C151.535 161.79 152.35 161.693 152.974 161.628C153.606 161.556 154.065 161.438 154.353 161.273C154.647 161.108 154.794 160.821 154.794 160.411V160.325C154.794 159.263 154.503 158.437 153.922 157.849C153.348 157.26 152.476 156.966 151.306 156.966C150.092 156.966 149.141 157.232 148.452 157.763C147.763 158.294 147.279 158.861 146.999 159.464L144.587 158.603C145.018 157.598 145.592 156.815 146.31 156.255C147.035 155.688 147.824 155.294 148.678 155.071C149.54 154.841 150.387 154.726 151.219 154.726C151.751 154.726 152.361 154.791 153.05 154.92C153.746 155.042 154.417 155.297 155.063 155.685C155.716 156.072 156.258 156.657 156.689 157.44C157.12 158.222 157.335 159.27 157.335 160.584V171.48H154.794V169.24H154.665C154.493 169.599 154.205 169.983 153.803 170.393C153.402 170.802 152.867 171.15 152.199 171.437C151.532 171.724 150.717 171.868 149.755 171.868ZM150.143 169.585C151.148 169.585 151.995 169.388 152.684 168.993C153.38 168.598 153.904 168.088 154.256 167.464C154.615 166.839 154.794 166.183 154.794 165.494V163.168C154.686 163.297 154.45 163.415 154.083 163.523C153.725 163.624 153.308 163.713 152.834 163.792C152.368 163.864 151.912 163.929 151.467 163.986C151.029 164.036 150.674 164.079 150.401 164.115C149.741 164.201 149.123 164.341 148.549 164.535C147.982 164.722 147.523 165.005 147.171 165.386C146.826 165.759 146.654 166.269 146.654 166.915C146.654 167.798 146.981 168.465 147.634 168.917C148.294 169.362 149.131 169.585 150.143 169.585ZM164.514 149.429V171.48H161.973V149.429H164.514Z" fill="#203A4A"/>
<path d="M118.05 112.66C113.2 104.76 108.11 96.9898 103.57 88.8998C100.44 83.3198 97.7999 77.4299 95.4499 71.4699C90.3799 58.6099 99.7899 42.5499 115.04 40.5699C128.99 38.7599 141 48.0199 142.83 61.8599C143.48 66.7899 141.95 71.3199 140.08 75.7499C135.78 85.9699 129.98 95.3599 123.99 104.64C122.27 107.3 120.46 109.91 118.7 112.55C118.48 112.59 118.27 112.62 118.05 112.66ZM132.55 64.7999C132.57 56.9699 126.41 50.7399 118.62 50.7099C110.71 50.6799 104.5 56.8599 104.5 64.7599C104.5 72.5099 110.77 78.8199 118.5 78.8299C126.23 78.8399 132.53 72.5499 132.55 64.7999Z" fill="#203A4A"/>
</g>
<defs>
<filter id="filter0_d_1004_1540" x="0.199951" y="0" width="247.22" height="235.25" filterUnits="userSpaceOnUse" color-interpolation-filters="sRGB">
<feFlood flood-opacity="0" result="BackgroundImageFix"/>
<feColorMatrix in="SourceAlpha" type="matrix" values="0 0 0 0 0 0 0 0 0 0 0 0 0 0 0 0 0 0 127 0" result="hardAlpha"/>
<feOffset dx="4.06" dy="8.12"/>
<feGaussianBlur stdDeviation="2.03"/>
<feColorMatrix type="matrix" values="0 0 0 0 0.113725 0 0 0 0 0.113725 0 0 0 0 0.105882 0 0 0 0.2 0"/>
<feBlend mode="normal" in2="BackgroundImageFix" result="effect1_dropShadow_1004_1540"/>
<feBlend mode="normal" in="SourceGraphic" in2="effect1_dropShadow_1004_1540" result="shape"/>
</filter>
<clipPath id="clip0_1004_1540">
<rect width="252" height="238" fill="white"/>
</clipPath>
</defs>
</svg>
