<svg width="246" height="232" viewBox="0 0 246 232" fill="none" xmlns="http://www.w3.org/2000/svg">
<g clip-path="url(#clip0_1043_2440)">
<g filter="url(#filter0_d_1043_2440)">
<path d="M209.319 0.575684H31.9193C14.8813 0.575684 1.06934 14.3877 1.06934 31.4257V192.796C1.06934 209.834 14.8813 223.646 31.9193 223.646H209.319C226.357 223.646 240.169 209.834 240.169 192.796V31.4257C240.169 14.3877 226.357 0.575684 209.319 0.575684Z" fill="#D5ECF2"/>
</g>
<mask id="mask0_1043_2440" style="mask-type:luminance" maskUnits="userSpaceOnUse" x="1" y="0" width="240" height="224">
<path d="M209.319 0.575684H31.9193C14.8813 0.575684 1.06934 14.3877 1.06934 31.4257V192.796C1.06934 209.834 14.8813 223.646 31.9193 223.646H209.319C226.357 223.646 240.169 209.834 240.169 192.796V31.4257C240.169 14.3877 226.357 0.575684 209.319 0.575684Z" fill="white"/>
</mask>
<g mask="url(#mask0_1043_2440)">
<path d="M-8.96102 149.066C-3.07102 152.636 2.48898 156.006 8.03898 159.386C13.599 162.766 14.809 167.476 11.469 173.056C7.20897 180.146 2.89897 187.196 -1.59103 194.596C-0.551025 195.226 0.288975 195.736 1.12897 196.246C44.519 222.576 87.899 248.906 131.289 275.236C134.779 277.356 135.109 277.276 137.179 273.876C141.529 266.716 145.809 259.506 150.279 252.426C151.099 251.126 152.589 249.746 153.969 249.476C155.179 249.246 157.299 250.176 157.889 251.226C158.549 252.396 158.489 254.586 157.809 255.816C154.539 261.666 150.949 267.336 147.469 273.066C145.969 275.536 144.539 278.046 142.929 280.436C139.929 284.926 134.149 286.336 129.349 283.846C128.609 283.456 127.899 283.006 127.189 282.566C82.289 255.316 37.399 228.056 -7.54104 200.876C-10.201 199.266 -11.501 197.336 -11.941 194.306C-12.891 187.766 -14.201 181.276 -15.261 174.756C-16.501 167.156 -17.721 159.546 -18.721 151.906C-18.911 150.416 -18.381 148.576 -17.591 147.236C-12.581 138.736 -7.41104 130.326 -2.29104 121.896C32.439 64.6658 67.169 7.43571 101.929 -49.7743C103.169 -51.8143 104.709 -53.7043 106.349 -55.4343C109.119 -58.3443 114.609 -58.8542 118.529 -56.6142C122.409 -54.3942 126.219 -52.0543 129.999 -49.6743C132.319 -48.2143 132.929 -45.6943 131.619 -43.6743C130.359 -41.7443 127.979 -41.2043 125.709 -42.5243C122.169 -44.5843 118.649 -46.6943 115.199 -48.9043C113.119 -50.2343 111.729 -50.0343 110.439 -47.7843C108.039 -43.5843 105.449 -39.4842 102.939 -35.3442C66.319 24.9858 29.709 85.3258 -6.91103 145.656C-7.53103 146.676 -8.15102 147.706 -8.99102 149.096L-8.96102 149.066ZM-8.99102 159.056C-7.73102 167.496 -6.54105 175.416 -5.36105 183.326C-5.14105 183.286 -4.92102 183.246 -4.71102 183.206C-1.55102 178.006 1.59898 172.806 4.84898 167.456C0.308975 164.696 -4.09102 162.036 -8.99102 159.056Z" fill="#E1F2F7"/>
<path d="M211.509 -0.264378C232.999 12.7756 254.499 25.8256 275.989 38.8656C282.969 43.0956 284.329 48.6056 280.109 55.5756C270.359 71.6556 260.639 87.7556 250.829 103.806C223.169 149.066 195.479 194.306 167.799 239.556C167.359 240.266 166.959 241.016 166.429 241.656C165.069 243.306 163.339 243.686 161.439 242.736C159.549 241.796 158.749 240.186 159.269 238.106C159.489 237.226 159.939 236.376 160.419 235.586C185.619 194.026 210.789 152.456 236.069 110.946C248.069 91.2556 260.299 71.6956 272.409 52.0756C274.899 48.0456 274.859 47.9756 270.699 45.4556C227.869 19.4656 185.049 -6.52438 142.219 -32.5144C138.409 -34.8244 137.369 -37.0844 138.959 -39.5444C140.499 -41.9244 142.799 -41.9644 146.539 -39.7044C168.189 -26.5644 189.839 -13.4244 211.499 -0.284397L211.509 -0.264378Z" fill="#E1F2F7"/>
<path d="M93.609 162.856C74.099 151.016 54.589 139.176 35.089 127.336C34.369 126.906 33.599 126.526 32.969 125.986C31.369 124.616 30.919 122.866 31.819 120.966C32.789 118.926 34.579 118.226 36.719 118.786C37.679 119.036 38.559 119.656 39.439 120.186C78.459 143.856 117.479 167.536 156.489 191.216C157.359 191.746 158.319 192.246 158.979 192.976C160.459 194.616 160.659 196.526 159.299 198.326C158.039 200.006 156.269 200.416 154.319 199.616C153.549 199.306 152.859 198.796 152.139 198.366C132.629 186.526 113.119 174.686 93.619 162.846L93.609 162.856Z" fill="#E1F2F7"/>
<path d="M102.289 148.516C82.779 136.676 63.2789 124.846 43.7689 112.996C42.9789 112.516 41.779 112.156 41.509 111.456C40.919 109.946 40.1089 107.916 40.6889 106.716C41.2589 105.526 43.3489 104.806 44.8989 104.466C45.7589 104.276 46.9489 105.156 47.8889 105.726C86.9889 129.436 126.089 153.146 165.149 176.926C166.319 177.636 167.549 178.856 167.939 180.086C168.349 181.386 168.309 183.676 167.509 184.316C166.379 185.196 164.369 185.106 162.729 185.116C162.009 185.116 161.289 184.336 160.569 183.896C141.139 172.106 121.719 160.316 102.289 148.526V148.516Z" fill="#E1F2F7"/>
<path d="M112.769 66.6659C121.529 71.9759 130.309 77.2458 139.029 82.6158C159.539 95.2458 180.009 107.926 200.519 120.556C202.539 121.806 204.059 123.526 203.039 125.786C202.449 127.106 200.659 128.126 199.179 128.716C198.419 129.016 197.069 128.246 196.149 127.696C180.609 118.306 165.059 108.936 149.579 99.4458C125.869 84.9058 102.219 70.2858 78.539 55.6958C77.909 55.3058 77.2389 54.9558 76.6489 54.5058C74.8489 53.1458 74.3389 51.3258 75.2989 49.3258C76.3389 47.1658 78.2289 46.5458 80.4589 47.2358C81.3289 47.5058 82.1189 48.0657 82.9089 48.5457C92.8589 54.5757 102.809 60.6158 112.759 66.6558L112.769 66.6659Z" fill="#E1F2F7"/>
<path d="M111.099 85.2559C121.049 91.2959 131.029 97.2759 140.939 103.386C157.879 113.826 174.769 124.336 191.679 134.816C194.599 136.626 195.429 139.016 193.959 141.286C192.549 143.456 190.219 143.726 187.349 141.986C176.679 135.526 165.989 129.086 155.349 122.566C126.719 105.006 98.1186 87.4158 69.5086 69.8258C68.7986 69.3858 67.6986 69.0359 67.4986 68.4159C66.9886 66.8659 66.2686 64.9059 66.8186 63.6359C67.3086 62.5159 69.3486 61.7358 70.8186 61.4858C71.7986 61.3158 73.0586 62.2158 74.0686 62.8258C86.4186 70.2858 98.7586 77.7859 111.099 85.2759V85.2559Z" fill="#E1F2F7"/>
<path d="M108.149 122.686C123.749 132.156 139.379 141.576 154.939 151.116C161.659 155.236 168.239 159.576 174.869 163.846C177.239 165.376 177.899 167.736 176.649 169.816C175.399 171.886 172.949 172.466 170.569 170.986C167.439 169.026 164.509 166.736 161.359 164.816C125.159 142.806 88.9393 120.836 52.7193 98.8559C48.9093 96.5459 47.8693 94.2859 49.4593 91.8359C51.0093 89.4559 53.3093 89.4059 57.0493 91.6759C74.0893 102.016 91.1193 112.356 108.149 122.686Z" fill="#E1F2F7"/>
<path d="M102.669 109.546C91.6987 102.886 80.7287 96.2057 69.7387 89.5757C67.5487 88.2557 66.4687 86.5257 67.3487 84.0157C68.1187 81.8157 70.6187 80.8458 72.8987 81.7758C73.6687 82.0858 74.3687 82.5757 75.0787 83.0057C96.3987 95.9357 117.709 108.876 139.019 121.806C139.739 122.236 140.509 122.616 141.129 123.166C142.879 124.706 143.359 126.566 142.149 128.656C141.029 130.596 138.659 131.266 136.569 130.066C132.859 127.946 129.229 125.666 125.569 123.446C117.929 118.816 110.299 114.176 102.669 109.546Z" fill="#E1F2F7"/>
<path d="M118.999 50.8356C124.249 54.0256 129.539 57.1657 134.759 60.4157C145.169 66.8957 155.539 73.4357 165.909 79.9757C168.519 81.6157 169.259 83.9056 167.999 86.0856C166.679 88.3656 164.269 88.7556 161.469 87.0656C155.729 83.6056 149.979 80.1557 144.269 76.6257C128.139 66.6457 112.009 56.6656 95.9587 46.5756C94.7087 45.7856 93.5087 44.1557 93.2787 42.7557C93.0987 41.6557 94.1687 39.6756 95.1987 39.2156C96.4887 38.6356 98.5987 38.6556 99.8287 39.3456C105.839 42.7156 111.669 46.4057 117.559 49.9757C118.039 50.2657 118.519 50.5556 118.989 50.8456L118.999 50.8356Z" fill="#E1F2F7"/>
<path d="M99.5987 215.585C111.069 213.785 111.899 214.295 115.299 225.075C116.509 224.735 117.739 224.125 118.959 224.115C121.039 224.105 123.229 224.145 125.179 224.765C127.399 225.475 128.329 228.005 127.489 230.055C126.579 232.265 124.819 232.955 122.499 232.625C121.539 232.485 120.469 232.385 119.559 232.645C111.979 234.815 107.829 232.255 106.389 224.415C106.309 223.965 106.289 223.495 106.219 222.715C104.789 223.115 103.669 223.445 102.529 223.745C97.1487 225.145 92.6387 222.355 91.2687 216.995C90.8287 215.275 89.9587 213.645 89.1787 212.035C88.2587 210.155 88.2787 208.425 89.8087 206.925C91.4287 205.345 93.5887 205.035 95.0987 206.515C96.7387 208.115 97.8387 210.335 98.9487 212.405C99.4387 213.315 99.3887 214.515 99.5787 215.575L99.5987 215.585Z" fill="#E1F2F7"/>
<path d="M214.609 60.5159C209.039 57.1359 203.469 53.7759 197.909 50.3759C195.109 48.6659 194.279 46.3459 195.589 44.1459C196.899 41.9659 199.459 41.5458 202.209 43.2058C213.439 49.9858 224.659 56.7959 235.849 63.6259C238.599 65.3059 239.329 67.7258 237.909 69.9358C236.549 72.0458 234.229 72.4058 231.549 70.7958C225.889 67.3958 220.249 63.9459 214.599 60.5259L214.609 60.5159Z" fill="#E1F2F7"/>
<path d="M205.859 74.8158C200.289 71.4358 194.709 68.0758 189.159 64.6758C186.399 62.9858 185.579 60.5859 186.919 58.4159C188.259 56.2559 190.789 55.8858 193.559 57.5558C204.709 64.2958 215.839 71.0558 226.969 77.8258C229.799 79.5458 230.619 81.8158 229.339 84.0658C228.019 86.3858 225.529 86.7258 222.569 84.9458C216.989 81.5858 211.429 78.1958 205.859 74.8158Z" fill="#E1F2F7"/>
<path d="M46.3089 153.756C42.4989 151.446 38.6689 149.145 34.8689 146.805C32.2989 145.215 31.5589 142.876 32.8489 140.726C34.1489 138.576 36.5989 138.096 39.1789 139.646C46.8289 144.246 54.4589 148.866 62.0589 153.536C64.5989 155.096 65.2389 157.525 63.8589 159.675C62.5389 161.715 60.2089 162.156 57.7489 160.696C53.9089 158.426 50.1189 156.076 46.2989 153.766L46.3089 153.756Z" fill="#E1F2F7"/>
<path d="M230.319 50.4458C227.059 48.4658 223.779 46.5158 220.549 44.4958C218.119 42.9758 217.399 40.6958 218.569 38.6058C219.779 36.4658 222.369 35.8758 224.899 37.3858C231.529 41.3358 238.129 45.3458 244.699 49.3958C247.279 50.9858 247.969 53.3858 246.659 55.5258C245.349 57.6758 242.969 58.0758 240.339 56.5158C236.979 54.5258 233.659 52.4758 230.319 50.4458Z" fill="#E1F2F7"/>
</g>
<path d="M101.538 121.228C101.409 120.137 100.885 119.29 99.9659 118.687C99.0471 118.084 97.9202 117.782 96.5851 117.782C95.6089 117.782 94.7547 117.94 94.0225 118.256C93.2975 118.572 92.7305 119.006 92.3213 119.559C91.9194 120.112 91.7184 120.74 91.7184 121.443C91.7184 122.032 91.8583 122.538 92.1383 122.961C92.4254 123.378 92.7915 123.726 93.2365 124.006C93.6816 124.279 94.1481 124.505 94.6362 124.684C95.1243 124.856 95.573 124.996 95.9821 125.104L98.2217 125.707C98.7959 125.858 99.4347 126.066 100.138 126.332C100.849 126.597 101.527 126.96 102.173 127.419C102.826 127.871 103.365 128.453 103.788 129.163C104.212 129.874 104.423 130.746 104.423 131.78C104.423 132.971 104.111 134.048 103.487 135.01C102.869 135.972 101.965 136.736 100.773 137.303C99.5891 137.87 98.1499 138.154 96.4559 138.154C94.8767 138.154 93.5093 137.899 92.3536 137.389C91.2051 136.88 90.3007 136.169 89.6403 135.257C88.9871 134.346 88.6175 133.287 88.5313 132.081H91.2877C91.3595 132.914 91.6394 133.603 92.1275 134.148C92.6228 134.687 93.2473 135.089 94.001 135.354C94.7619 135.613 95.5801 135.742 96.4559 135.742C97.4751 135.742 98.3903 135.577 99.2015 135.247C100.013 134.909 100.655 134.443 101.129 133.847C101.603 133.244 101.839 132.541 101.839 131.737C101.839 131.004 101.635 130.409 101.226 129.949C100.817 129.49 100.278 129.117 99.6106 128.829C98.9431 128.542 98.2217 128.291 97.4464 128.076L94.7331 127.301C93.0104 126.805 91.6466 126.098 90.6417 125.179C89.6367 124.261 89.1343 123.058 89.1343 121.572C89.1343 120.338 89.4681 119.261 90.1356 118.342C90.8103 117.416 91.7148 116.699 92.8489 116.189C93.9902 115.672 95.2643 115.414 96.6712 115.414C98.0925 115.414 99.3558 115.669 100.461 116.178C101.567 116.681 102.442 117.37 103.088 118.245C103.742 119.121 104.086 120.115 104.122 121.228H101.538ZM115.403 138.111C113.81 138.111 112.435 137.759 111.279 137.055C110.131 136.345 109.244 135.354 108.62 134.084C108.003 132.806 107.694 131.32 107.694 129.626C107.694 127.932 108.003 126.439 108.62 125.147C109.244 123.848 110.113 122.836 111.226 122.111C112.345 121.379 113.652 121.013 115.145 121.013C116.006 121.013 116.857 121.156 117.697 121.443C118.536 121.73 119.301 122.197 119.99 122.843C120.679 123.482 121.228 124.329 121.637 125.384C122.046 126.439 122.251 127.738 122.251 129.282V130.358H109.503V128.162H119.667C119.667 127.229 119.48 126.396 119.107 125.664C118.741 124.932 118.217 124.354 117.535 123.93C116.86 123.507 116.064 123.295 115.145 123.295C114.133 123.295 113.257 123.546 112.518 124.049C111.785 124.544 111.222 125.19 110.827 125.987C110.432 126.784 110.235 127.638 110.235 128.55V130.014C110.235 131.263 110.45 132.322 110.881 133.19C111.319 134.051 111.925 134.708 112.701 135.16C113.476 135.606 114.377 135.828 115.403 135.828C116.071 135.828 116.674 135.735 117.212 135.548C117.758 135.354 118.228 135.067 118.623 134.687C119.017 134.299 119.322 133.818 119.538 133.244L121.993 133.933C121.734 134.766 121.3 135.498 120.69 136.13C120.08 136.754 119.326 137.242 118.429 137.594C117.531 137.938 116.523 138.111 115.403 138.111ZM126.116 137.766V121.228H128.571V123.812H128.787C129.131 122.929 129.687 122.244 130.456 121.756C131.224 121.26 132.146 121.013 133.223 121.013C134.314 121.013 135.222 121.26 135.947 121.756C136.679 122.244 137.25 122.929 137.659 123.812H137.831C138.254 122.958 138.89 122.28 139.737 121.777C140.584 121.267 141.599 121.013 142.784 121.013C144.262 121.013 145.472 121.476 146.412 122.402C147.353 123.32 147.823 124.752 147.823 126.698V137.766H145.282V126.698C145.282 125.477 144.948 124.605 144.28 124.081C143.613 123.557 142.827 123.295 141.922 123.295C140.76 123.295 139.859 123.647 139.22 124.35C138.581 125.047 138.262 125.93 138.262 126.999V137.766H135.678V126.439C135.678 125.499 135.372 124.742 134.762 124.167C134.152 123.586 133.366 123.295 132.404 123.295C131.744 123.295 131.127 123.471 130.552 123.823C129.985 124.175 129.526 124.663 129.174 125.287C128.83 125.904 128.657 126.619 128.657 127.43V137.766H126.116Z" fill="#203A4A"/>
<path d="M34.8792 166.136V144.085H42.5884C44.1245 144.085 45.3914 144.351 46.3892 144.882C47.3869 145.406 48.1299 146.113 48.618 147.003C49.1061 147.886 49.3501 148.866 49.3501 149.943C49.3501 150.89 49.1814 151.672 48.8441 152.29C48.5139 152.907 48.076 153.395 47.5305 153.754C46.9921 154.113 46.4071 154.379 45.7755 154.551V154.766C46.4502 154.809 47.1285 155.046 47.8104 155.477C48.4923 155.908 49.063 156.525 49.5224 157.329C49.9818 158.133 50.2115 159.116 50.2115 160.279C50.2115 161.384 49.9603 162.379 49.4578 163.261C48.9553 164.144 48.1622 164.844 47.0783 165.361C45.9944 165.878 44.5839 166.136 42.8468 166.136H34.8792ZM37.5494 163.767H42.8468C44.5911 163.767 45.8293 163.43 46.5615 162.755C47.3008 162.073 47.6705 161.248 47.6705 160.279C47.6705 159.532 47.4802 158.843 47.0998 158.212C46.7194 157.573 46.1774 157.063 45.474 156.683C44.7705 156.295 43.9379 156.101 42.976 156.101H37.5494V163.767ZM37.5494 153.776H42.5023C43.3062 153.776 44.0312 153.618 44.6772 153.302C45.3304 152.986 45.8472 152.541 46.2277 151.967C46.6153 151.393 46.8091 150.718 46.8091 149.943C46.8091 148.974 46.4717 148.152 45.797 147.477C45.1223 146.795 44.0527 146.454 42.5884 146.454H37.5494V153.776ZM64.677 159.375V149.598H67.218V166.136H64.677V163.337H64.5047C64.1171 164.177 63.5142 164.891 62.6959 165.479C61.8776 166.061 60.8439 166.352 59.595 166.352C58.5613 166.352 57.6425 166.125 56.8386 165.673C56.0347 165.214 55.403 164.525 54.9436 163.606C54.4842 162.68 54.2545 161.514 54.2545 160.107V149.598H56.7955V159.934C56.7955 161.14 57.1329 162.102 57.8076 162.82C58.4895 163.538 59.3581 163.897 60.4133 163.897C61.0449 163.897 61.6874 163.735 62.3406 163.412C63.0009 163.089 63.5536 162.594 63.9987 161.926C64.4509 161.259 64.677 160.408 64.677 159.375ZM71.8721 166.136V149.598H74.327V152.096H74.4992C74.8007 151.278 75.3463 150.614 76.1358 150.104C76.9254 149.594 77.8155 149.34 78.8061 149.34C78.9927 149.34 79.226 149.343 79.5059 149.35C79.7859 149.358 79.9976 149.368 80.1412 149.383V151.967C80.055 151.945 79.8576 151.913 79.549 151.87C79.2475 151.82 78.9281 151.795 78.5907 151.795C77.7868 151.795 77.069 151.963 76.4373 152.301C75.8128 152.631 75.3175 153.09 74.9515 153.679C74.5926 154.26 74.4131 154.924 74.4131 155.671V166.136H71.8721ZM89.3685 166.481C87.8755 166.481 86.5655 166.125 85.4386 165.415C84.3188 164.704 83.4431 163.71 82.8114 162.432C82.1869 161.155 81.8747 159.662 81.8747 157.953C81.8747 156.231 82.1869 154.727 82.8114 153.442C83.4431 152.157 84.3188 151.159 85.4386 150.449C86.5655 149.738 87.8755 149.383 89.3685 149.383C90.8616 149.383 92.168 149.738 93.2877 150.449C94.4147 151.159 95.2904 152.157 95.9149 153.442C96.5466 154.727 96.8624 156.231 96.8624 157.953C96.8624 159.662 96.5466 161.155 95.9149 162.432C95.2904 163.71 94.4147 164.704 93.2877 165.415C92.168 166.125 90.8616 166.481 89.3685 166.481ZM89.3685 164.198C90.5027 164.198 91.4358 163.907 92.168 163.326C92.9001 162.745 93.4421 161.98 93.7938 161.033C94.1455 160.085 94.3214 159.059 94.3214 157.953C94.3214 156.848 94.1455 155.818 93.7938 154.863C93.4421 153.908 92.9001 153.137 92.168 152.548C91.4358 151.96 90.5027 151.665 89.3685 151.665C88.2344 151.665 87.3013 151.96 86.5691 152.548C85.8369 153.137 85.295 153.908 84.9433 154.863C84.5916 155.818 84.4157 156.848 84.4157 157.953C84.4157 159.059 84.5916 160.085 84.9433 161.033C85.295 161.98 85.8369 162.745 86.5691 163.326C87.3013 163.907 88.2344 164.198 89.3685 164.198ZM107.46 166.481C105.909 166.481 104.574 166.115 103.455 165.383C102.335 164.65 101.473 163.642 100.87 162.357C100.267 161.072 99.966 159.604 99.966 157.953C99.966 156.274 100.275 154.791 100.892 153.506C101.516 152.214 102.385 151.206 103.498 150.481C104.617 149.749 105.924 149.383 107.417 149.383C108.58 149.383 109.628 149.598 110.561 150.029C111.494 150.459 112.258 151.062 112.854 151.838C113.45 152.613 113.82 153.517 113.963 154.551H111.422C111.228 153.797 110.798 153.13 110.13 152.548C109.47 151.96 108.58 151.665 107.46 151.665C106.469 151.665 105.601 151.924 104.854 152.441C104.115 152.95 103.537 153.672 103.121 154.605C102.712 155.531 102.507 156.618 102.507 157.867C102.507 159.145 102.708 160.257 103.11 161.205C103.519 162.152 104.093 162.888 104.833 163.412C105.579 163.936 106.455 164.198 107.46 164.198C108.12 164.198 108.72 164.083 109.258 163.854C109.796 163.624 110.252 163.294 110.625 162.863C110.999 162.432 111.264 161.916 111.422 161.313H113.963C113.82 162.289 113.464 163.168 112.897 163.951C112.337 164.726 111.594 165.343 110.668 165.802C109.75 166.255 108.68 166.481 107.46 166.481ZM117.678 166.136V149.598H120.133V152.096H120.305C120.606 151.278 121.152 150.614 121.942 150.104C122.731 149.594 123.621 149.34 124.612 149.34C124.798 149.34 125.032 149.343 125.312 149.35C125.592 149.358 125.803 149.368 125.947 149.383V151.967C125.861 151.945 125.663 151.913 125.355 151.87C125.053 151.82 124.734 151.795 124.396 151.795C123.592 151.795 122.875 151.963 122.243 152.301C121.619 152.631 121.123 153.09 120.757 153.679C120.398 154.26 120.219 154.924 120.219 155.671V166.136H117.678ZM133.826 166.524C132.778 166.524 131.827 166.326 130.972 165.932C130.118 165.53 129.44 164.952 128.937 164.198C128.435 163.437 128.184 162.519 128.184 161.442C128.184 160.494 128.37 159.726 128.744 159.138C129.117 158.542 129.616 158.075 130.24 157.738C130.865 157.401 131.554 157.149 132.308 156.984C133.068 156.812 133.833 156.676 134.601 156.575C135.606 156.446 136.421 156.349 137.045 156.284C137.677 156.213 138.136 156.094 138.423 155.929C138.717 155.764 138.865 155.477 138.865 155.068V154.982C138.865 153.919 138.574 153.094 137.993 152.505C137.418 151.917 136.546 151.622 135.376 151.622C134.163 151.622 133.212 151.888 132.523 152.419C131.834 152.95 131.349 153.517 131.069 154.12L128.657 153.259C129.088 152.254 129.662 151.472 130.38 150.912C131.105 150.345 131.895 149.95 132.749 149.727C133.61 149.498 134.457 149.383 135.29 149.383C135.821 149.383 136.431 149.447 137.12 149.577C137.817 149.699 138.488 149.953 139.134 150.341C139.787 150.729 140.329 151.314 140.76 152.096C141.19 152.878 141.406 153.926 141.406 155.24V166.136H138.865V163.897H138.735C138.563 164.256 138.276 164.64 137.874 165.049C137.472 165.458 136.937 165.806 136.27 166.093C135.602 166.38 134.788 166.524 133.826 166.524ZM134.213 164.241C135.218 164.241 136.065 164.044 136.754 163.649C137.451 163.254 137.975 162.745 138.326 162.12C138.685 161.496 138.865 160.839 138.865 160.15V157.824C138.757 157.953 138.52 158.072 138.154 158.179C137.795 158.28 137.379 158.37 136.905 158.449C136.438 158.52 135.983 158.585 135.538 158.642C135.1 158.693 134.744 158.736 134.472 158.772C133.811 158.858 133.194 158.998 132.62 159.191C132.053 159.378 131.593 159.662 131.242 160.042C130.897 160.415 130.725 160.925 130.725 161.571C130.725 162.454 131.051 163.121 131.705 163.574C132.365 164.019 133.201 164.241 134.213 164.241ZM152.762 166.481C151.212 166.481 149.877 166.115 148.757 165.383C147.637 164.65 146.776 163.642 146.173 162.357C145.57 161.072 145.268 159.604 145.268 157.953C145.268 156.274 145.577 154.791 146.194 153.506C146.819 152.214 147.687 151.206 148.8 150.481C149.92 149.749 151.226 149.383 152.719 149.383C153.882 149.383 154.93 149.598 155.863 150.029C156.796 150.459 157.561 151.062 158.156 151.838C158.752 152.613 159.122 153.517 159.266 154.551H156.724C156.531 153.797 156.1 153.13 155.432 152.548C154.772 151.96 153.882 151.665 152.762 151.665C151.772 151.665 150.903 151.924 150.157 152.441C149.417 152.95 148.839 153.672 148.423 154.605C148.014 155.531 147.809 156.618 147.809 157.867C147.809 159.145 148.01 160.257 148.412 161.205C148.821 162.152 149.396 162.888 150.135 163.412C150.882 163.936 151.757 164.198 152.762 164.198C153.423 164.198 154.022 164.083 154.56 163.854C155.099 163.624 155.554 163.294 155.928 162.863C156.301 162.432 156.567 161.916 156.724 161.313H159.266C159.122 162.289 158.767 163.168 158.2 163.951C157.64 164.726 156.897 165.343 155.971 165.802C155.052 166.255 153.982 166.481 152.762 166.481ZM162.98 166.136V149.598H165.521V166.136H162.98ZM164.272 146.842C163.777 146.842 163.35 146.673 162.991 146.336C162.639 145.998 162.463 145.593 162.463 145.119C162.463 144.645 162.639 144.24 162.991 143.902C163.35 143.565 163.777 143.396 164.272 143.396C164.767 143.396 165.191 143.565 165.543 143.902C165.902 144.24 166.081 144.645 166.081 145.119C166.081 145.593 165.902 145.998 165.543 146.336C165.191 146.673 164.767 146.842 164.272 146.842ZM175.042 166.524C173.994 166.524 173.043 166.326 172.189 165.932C171.334 165.53 170.656 164.952 170.154 164.198C169.651 163.437 169.4 162.519 169.4 161.442C169.4 160.494 169.587 159.726 169.96 159.138C170.333 158.542 170.832 158.075 171.456 157.738C172.081 157.401 172.77 157.149 173.524 156.984C174.285 156.812 175.049 156.676 175.817 156.575C176.822 156.446 177.637 156.349 178.261 156.284C178.893 156.213 179.352 156.094 179.639 155.929C179.934 155.764 180.081 155.477 180.081 155.068V154.982C180.081 153.919 179.79 153.094 179.209 152.505C178.635 151.917 177.762 151.622 176.592 151.622C175.379 151.622 174.428 151.888 173.739 152.419C173.05 152.95 172.565 153.517 172.286 154.12L169.874 153.259C170.304 152.254 170.879 151.472 171.596 150.912C172.321 150.345 173.111 149.95 173.965 149.727C174.827 149.498 175.674 149.383 176.506 149.383C177.037 149.383 177.648 149.447 178.337 149.577C179.033 149.699 179.704 149.953 180.35 150.341C181.003 150.729 181.545 151.314 181.976 152.096C182.407 152.878 182.622 153.926 182.622 155.24V166.136H180.081V163.897H179.952C179.779 164.256 179.492 164.64 179.09 165.049C178.688 165.458 178.154 165.806 177.486 166.093C176.818 166.38 176.004 166.524 175.042 166.524ZM175.43 164.241C176.434 164.241 177.281 164.044 177.971 163.649C178.667 163.254 179.191 162.745 179.543 162.12C179.901 161.496 180.081 160.839 180.081 160.15V157.824C179.973 157.953 179.736 158.072 179.37 158.179C179.011 158.28 178.595 158.37 178.121 158.449C177.655 158.52 177.199 158.585 176.754 158.642C176.316 158.693 175.961 158.736 175.688 158.772C175.028 158.858 174.41 158.998 173.836 159.191C173.269 159.378 172.81 159.662 172.458 160.042C172.113 160.415 171.941 160.925 171.941 161.571C171.941 162.454 172.268 163.121 172.921 163.574C173.581 164.019 174.417 164.241 175.43 164.241Z" fill="#203A4A"/>
<path d="M105.629 98.396C106.989 98.396 108.259 98.376 109.539 98.376C110.819 98.376 111.509 99.0359 111.519 100.316C111.539 101.946 111.539 103.576 111.549 105.276H112.179C122.169 105.206 132.159 105.146 142.149 105.086C142.949 105.086 142.999 105.036 142.999 104.246C142.999 102.596 142.959 100.946 142.979 99.2959C142.979 98.9959 143.089 98.606 143.299 98.416C143.479 98.256 143.929 98.1859 144.139 98.3059C144.369 98.4359 144.589 98.8059 144.599 99.0859C144.659 100.406 144.639 101.726 144.649 103.046C144.649 103.616 144.669 104.186 144.649 104.746C144.609 105.806 143.789 106.636 142.729 106.716C142.569 106.726 142.399 106.716 142.239 106.716C131.899 106.786 121.569 106.846 111.229 106.926C110.619 106.926 110.199 106.736 109.809 106.276C108.979 105.276 108.089 104.326 107.239 103.346C106.249 102.196 105.259 101.046 104.299 99.876C104.109 99.646 104.009 99.2859 104.009 98.9759C103.969 97.0359 103.969 95.096 103.959 93.146C103.879 79.966 103.789 66.796 103.719 53.616C103.719 53.146 103.779 52.6659 103.879 52.2059C104.039 51.4359 104.909 50.776 105.799 50.756C106.679 50.726 107.559 50.726 108.439 50.736C108.979 50.736 109.339 51.0959 109.329 51.5759C109.319 52.0259 108.969 52.366 108.459 52.376C107.649 52.396 106.849 52.406 106.039 52.386C105.549 52.386 105.339 52.5559 105.359 53.0659C105.389 54.0159 105.379 54.9759 105.389 55.9259C105.479 69.8159 105.559 83.7059 105.649 97.5959V98.386L105.629 98.396ZM106.659 100.076C107.739 101.356 108.759 102.566 109.769 103.766C109.799 103.736 109.829 103.706 109.869 103.676L109.849 100.046C108.799 100.046 107.789 100.056 106.659 100.066V100.076Z" fill="#203A4A"/>
<path d="M127.179 50.6158C132.129 50.5858 137.079 50.5559 142.029 50.5259C143.639 50.5259 144.429 51.2959 144.439 52.9059C144.469 56.6059 144.499 60.3059 144.509 64.0059C144.539 74.4459 144.569 84.8858 144.599 95.3258C144.599 95.4858 144.599 95.6558 144.589 95.8158C144.529 96.2358 144.279 96.4759 143.859 96.5159C143.449 96.5559 143.149 96.3658 143.019 95.9658C142.969 95.7958 142.949 95.6058 142.949 95.4258C142.889 85.8558 142.819 76.2958 142.769 66.7258C142.749 62.1858 142.779 57.6458 142.789 53.1058C142.789 52.1758 142.779 52.1658 141.819 52.1758C131.959 52.2358 122.099 52.2958 112.239 52.3658C111.359 52.3658 110.959 52.1059 110.969 51.5259C110.979 50.9659 111.359 50.7258 112.219 50.7158C117.209 50.6858 122.189 50.6559 127.179 50.6259V50.6158Z" fill="#203A4A"/>
<path d="M124.238 90.1258C119.748 90.1558 115.258 90.1857 110.768 90.2057C110.608 90.2057 110.438 90.2257 110.278 90.2057C109.868 90.1457 109.608 89.8958 109.568 89.4858C109.518 89.0458 109.748 88.7458 110.168 88.6158C110.358 88.5558 110.568 88.5757 110.768 88.5657C119.748 88.5057 128.738 88.4558 137.718 88.3958C137.918 88.3958 138.128 88.3757 138.318 88.4357C138.738 88.5557 138.968 88.8557 138.928 89.2957C138.888 89.7057 138.638 89.9558 138.228 90.0258C138.068 90.0558 137.898 90.0358 137.738 90.0358C133.248 90.0658 128.758 90.0958 124.268 90.1258H124.238Z" fill="#203A4A"/>
<path d="M124.218 86.8257C119.728 86.8557 115.238 86.8858 110.748 86.9058C110.568 86.9058 110.328 86.9657 110.208 86.8757C109.948 86.6857 109.608 86.4258 109.578 86.1658C109.548 85.9058 109.828 85.5757 110.048 85.3557C110.168 85.2357 110.468 85.2557 110.678 85.2557C119.678 85.1957 128.678 85.1357 137.678 85.0957C137.948 85.0957 138.278 85.1657 138.468 85.3357C138.668 85.5157 138.898 85.8957 138.828 86.0857C138.728 86.3457 138.378 86.5457 138.108 86.7157C137.988 86.7857 137.788 86.7357 137.618 86.7357C133.148 86.7657 128.668 86.7957 124.198 86.8157L124.218 86.8257Z" fill="#203A4A"/>
<path d="M117.528 72.0259C119.548 72.0159 121.558 71.9858 123.578 71.9858C128.318 71.9858 133.058 71.9959 137.798 72.0059C138.268 72.0059 138.698 72.1359 138.758 72.6259C138.798 72.9059 138.598 73.2659 138.408 73.5159C138.308 73.6459 138.008 73.6559 137.798 73.6559C134.228 73.6859 130.648 73.7158 127.078 73.7258C121.608 73.7258 116.128 73.7258 110.658 73.7258C110.508 73.7258 110.368 73.7358 110.218 73.7258C109.778 73.6858 109.498 73.4358 109.458 72.9958C109.408 72.5258 109.658 72.2258 110.108 72.1158C110.278 72.0758 110.468 72.0858 110.658 72.0858C112.948 72.0658 115.238 72.0558 117.528 72.0458V72.0259Z" fill="#203A4A"/>
<path d="M119.169 75.3158C121.459 75.3058 123.749 75.2759 126.039 75.2759C129.959 75.2759 133.869 75.2958 137.789 75.3058C138.469 75.3058 138.849 75.6259 138.839 76.1559C138.829 76.6659 138.459 76.9458 137.799 76.9558C135.339 76.9758 132.889 76.9959 130.429 77.0059C123.819 77.0159 117.209 77.0159 110.599 77.0259C110.439 77.0259 110.219 77.0758 110.119 76.9958C109.869 76.7858 109.549 76.5359 109.509 76.2659C109.479 76.0259 109.739 75.6858 109.959 75.4958C110.109 75.3658 110.409 75.3859 110.639 75.3859C113.479 75.3659 116.319 75.3458 119.159 75.3258L119.169 75.3158Z" fill="#203A4A"/>
<path d="M122.539 81.8857C126.129 81.8657 129.719 81.8257 133.319 81.8257C134.869 81.8257 136.419 81.8758 137.969 81.9058C138.519 81.9158 138.879 82.2457 138.879 82.7257C138.879 83.2057 138.529 83.5557 137.979 83.5457C137.249 83.5457 136.529 83.4557 135.799 83.4657C127.459 83.5157 119.119 83.5657 110.779 83.6157C109.899 83.6157 109.499 83.3558 109.509 82.7758C109.519 82.2158 109.899 81.9757 110.769 81.9657C114.689 81.9457 118.609 81.9158 122.539 81.8958V81.8857Z" fill="#203A4A"/>
<path d="M120.259 80.2559C117.729 80.2759 115.209 80.2858 112.679 80.3058C112.179 80.3058 111.819 80.1359 111.709 79.6159C111.609 79.1659 111.929 78.7459 112.409 78.6659C112.569 78.6359 112.739 78.6459 112.899 78.6459C117.809 78.6159 122.709 78.5858 127.619 78.5558C127.779 78.5558 127.949 78.5359 128.109 78.5659C128.559 78.6459 128.829 78.9059 128.849 79.3759C128.859 79.8159 128.529 80.1758 128.059 80.1858C127.219 80.2158 126.379 80.2059 125.529 80.2159C123.769 80.2259 122.009 80.2359 120.259 80.2459V80.2559Z" fill="#203A4A"/>
<path d="M116.939 68.7257C118.149 68.7257 119.359 68.6957 120.569 68.7057C122.979 68.7157 125.399 68.7457 127.809 68.7657C128.419 68.7657 128.779 69.0756 128.789 69.5756C128.799 70.0956 128.439 70.4057 127.799 70.4157C126.479 70.4257 125.159 70.4456 123.839 70.4356C120.109 70.4356 116.369 70.4157 112.639 70.3857C112.349 70.3857 111.979 70.2357 111.799 70.0257C111.659 69.8557 111.629 69.4157 111.759 69.2357C111.919 69.0057 112.269 68.7957 112.549 68.7757C113.899 68.7257 115.259 68.7357 116.619 68.7257C116.729 68.7257 116.839 68.7257 116.949 68.7257H116.939Z" fill="#203A4A"/>
<path d="M130.689 98.3459C132.429 96.8659 132.619 96.8559 134.299 98.3159C134.469 98.1359 134.609 97.906 134.819 97.776C135.169 97.556 135.539 97.336 135.929 97.246C136.369 97.136 136.789 97.466 136.859 97.896C136.939 98.356 136.709 98.6559 136.289 98.8459C136.109 98.9259 135.929 99.016 135.799 99.156C134.749 100.306 133.789 100.306 132.739 99.136C132.679 99.066 132.629 98.9959 132.539 98.8659C132.339 99.0759 132.189 99.256 132.029 99.416C131.269 100.206 130.229 100.206 129.449 99.4459C129.199 99.2059 128.889 99.0159 128.589 98.8259C128.239 98.6059 128.069 98.316 128.169 97.906C128.279 97.476 128.609 97.1959 129.009 97.2959C129.449 97.3959 129.859 97.656 130.259 97.886C130.439 97.986 130.549 98.1959 130.689 98.3559V98.3459Z" fill="#203A4A"/>
<path d="M133.969 60.4857C132.689 60.4857 131.409 60.5057 130.119 60.5057C129.469 60.5057 129.099 60.2057 129.089 59.6957C129.089 59.1957 129.469 58.8557 130.099 58.8557C132.679 58.8357 135.259 58.8157 137.849 58.8057C138.479 58.8057 138.859 59.1358 138.849 59.6458C138.849 60.1358 138.489 60.4357 137.869 60.4457C136.569 60.4557 135.269 60.4657 133.969 60.4757V60.4857Z" fill="#203A4A"/>
<path d="M133.978 63.786C132.698 63.786 131.418 63.8059 130.128 63.8059C129.488 63.8059 129.108 63.486 129.108 62.986C129.108 62.486 129.498 62.166 130.128 62.156C132.688 62.136 135.258 62.116 137.818 62.106C138.468 62.106 138.838 62.396 138.858 62.906C138.878 63.436 138.498 63.746 137.818 63.756C136.538 63.766 135.258 63.776 133.968 63.786H133.978Z" fill="#203A4A"/>
<path d="M115.378 93.476C114.498 93.476 113.618 93.496 112.748 93.486C112.148 93.486 111.788 93.1659 111.778 92.6759C111.778 92.1859 112.138 91.8459 112.728 91.8459C114.488 91.8259 116.238 91.8159 117.998 91.8159C118.588 91.8159 118.948 92.156 118.938 92.656C118.938 93.136 118.578 93.4459 118.018 93.4559C117.138 93.4659 116.258 93.466 115.388 93.476H115.378Z" fill="#203A4A"/>
<path d="M135.559 57.176C134.809 57.176 134.059 57.196 133.309 57.186C132.749 57.186 132.389 56.8761 132.369 56.4061C132.349 55.9261 132.729 55.556 133.309 55.546C134.829 55.526 136.349 55.5161 137.869 55.5161C138.469 55.5161 138.829 55.8461 138.829 56.3461C138.829 56.8461 138.479 57.1561 137.869 57.1661C137.099 57.1761 136.329 57.176 135.559 57.186V57.176Z" fill="#203A4A"/>
</g>
<defs>
<filter id="filter0_d_1043_2440" x="1.06934" y="0.575684" width="247.22" height="235.25" filterUnits="userSpaceOnUse" color-interpolation-filters="sRGB">
<feFlood flood-opacity="0" result="BackgroundImageFix"/>
<feColorMatrix in="SourceAlpha" type="matrix" values="0 0 0 0 0 0 0 0 0 0 0 0 0 0 0 0 0 0 127 0" result="hardAlpha"/>
<feOffset dx="4.06" dy="8.12"/>
<feGaussianBlur stdDeviation="2.03"/>
<feColorMatrix type="matrix" values="0 0 0 0 0.113725 0 0 0 0 0.113725 0 0 0 0 0.105882 0 0 0 0.2 0"/>
<feBlend mode="normal" in2="BackgroundImageFix" result="effect1_dropShadow_1043_2440"/>
<feBlend mode="normal" in="SourceGraphic" in2="effect1_dropShadow_1043_2440" result="shape"/>
</filter>
<clipPath id="clip0_1043_2440">
<rect width="244.364" height="230.788" fill="white" transform="translate(0.969727 0.575684)"/>
</clipPath>
</defs>
</svg>
