<svg width="252" height="238" viewBox="0 0 252 238" fill="none" xmlns="http://www.w3.org/2000/svg">
<g clip-path="url(#clip0_1004_1628)">
<g filter="url(#filter0_d_1004_1628)">
<path d="M208.55 0.000488281H31.15C14.112 0.000488281 0.300049 13.8125 0.300049 30.8505V192.22C0.300049 209.258 14.112 223.07 31.15 223.07H208.55C225.588 223.07 239.4 209.258 239.4 192.22V30.8505C239.4 13.8125 225.588 0.000488281 208.55 0.000488281Z" fill="#D5ECF2"/>
</g>
<mask id="mask0_1004_1628" style="mask-type:luminance" maskUnits="userSpaceOnUse" x="0" y="0" width="240" height="224">
<path d="M208.55 0H31.15C14.112 0 0.300049 13.812 0.300049 30.85V192.22C0.300049 209.258 14.112 223.07 31.15 223.07H208.55C225.588 223.07 239.4 209.258 239.4 192.22V30.85C239.4 13.812 225.588 0 208.55 0Z" fill="white"/>
</mask>
<g mask="url(#mask0_1004_1628)">
<path d="M92.03 130.03C91.42 130.81 91.03 131.35 90.6 131.85C61.53 165.04 32.46 198.23 3.39 231.42C-0.539996 235.91 -4.49002 240.37 -8.38002 244.89C-10.32 247.14 -10.38 249.78 -8.69999 251.83C-7.06999 253.82 -4.63 254.24 -2.02 252.98C-1.68 252.82 -1.35 252.65 -1.02 252.47C65.64 217.68 132.3 182.89 198.97 148.09C205.05 144.91 211.14 141.74 217.22 138.56C219.17 137.54 220.3 135.98 220.27 133.74C220.25 131.59 219.15 130.09 217.25 129.14C216.58 128.81 215.92 128.47 215.25 128.13C192.71 116.81 170.17 105.48 147.63 94.16C146.79 93.7401 145.95 93.3201 144.95 92.8101C145.44 92.1501 145.71 91.7201 146.03 91.3301C177.72 53.1301 209.42 14.9201 241.1 -23.2899C241.81 -24.1399 242.55 -25.0299 242.98 -26.0299C243.85 -28.0399 243.2 -30.3599 241.61 -31.7399C239.74 -33.3599 237.58 -33.4099 234.75 -31.8799C163.43 6.70013 92.12 45.2901 20.79 83.8501C18.55 85.0601 16.76 86.47 16.86 89.28C16.96 91.97 18.75 93.2501 20.95 94.3601C43.77 105.78 66.57 117.25 89.38 128.71L92.02 130.04L92.03 130.03Z" fill="#E1F2F7"/>
</g>
<path d="M52.2503 143.111V121.06H59.7011C61.4238 121.06 62.8379 121.355 63.9433 121.943C65.0487 122.525 65.867 123.325 66.3982 124.344C66.9294 125.364 67.195 126.523 67.195 127.822C67.195 129.121 66.9294 130.273 66.3982 131.278C65.867 132.283 65.0523 133.073 63.9541 133.647C62.8558 134.214 61.4525 134.498 59.7442 134.498H53.7146V132.086H59.658C60.8352 132.086 61.7827 131.914 62.5005 131.569C63.2255 131.225 63.7495 130.736 64.0725 130.105C64.4027 129.466 64.5678 128.705 64.5678 127.822C64.5678 126.939 64.4027 126.168 64.0725 125.507C63.7423 124.847 63.2147 124.337 62.4898 123.978C61.7648 123.612 60.8065 123.429 59.615 123.429H54.9205V143.111H52.2503ZM62.6297 133.206L68.0563 143.111H64.9554L59.615 133.206H62.6297ZM76.1666 143.499C75.1186 143.499 74.1675 143.302 73.3133 142.907C72.4592 142.505 71.7808 141.927 71.2784 141.173C70.7759 140.412 70.5247 139.494 70.5247 138.417C70.5247 137.469 70.7113 136.701 71.0846 136.113C71.4578 135.517 71.9567 135.05 72.5812 134.713C73.2057 134.376 73.8948 134.124 74.6485 133.959C75.4093 133.787 76.1738 133.651 76.9418 133.55C77.9468 133.421 78.7615 133.324 79.386 133.259C80.0176 133.188 80.477 133.069 80.7641 132.904C81.0584 132.739 81.2056 132.452 81.2056 132.043V131.957C81.2056 130.894 80.9149 130.069 80.3335 129.48C79.7592 128.892 78.8871 128.597 77.7171 128.597C76.504 128.597 75.5529 128.863 74.8638 129.394C74.1747 129.925 73.6902 130.492 73.4102 131.095L70.9984 130.234C71.4291 129.229 72.0033 128.447 72.7212 127.887C73.4461 127.32 74.2357 126.925 75.0899 126.702C75.9513 126.473 76.7983 126.358 77.6309 126.358C78.1621 126.358 78.7722 126.422 79.4613 126.552C80.1576 126.674 80.8287 126.928 81.4748 127.316C82.128 127.704 82.6699 128.289 83.1006 129.071C83.5313 129.854 83.7466 130.901 83.7466 132.215V143.111H81.2056V140.872H81.0764C80.9041 141.231 80.617 141.615 80.215 142.024C79.813 142.433 79.2783 142.781 78.6107 143.068C77.9432 143.355 77.1285 143.499 76.1666 143.499ZM76.5542 141.216C77.5591 141.216 78.4062 141.019 79.0952 140.624C79.7915 140.229 80.3155 139.72 80.6672 139.095C81.0261 138.471 81.2056 137.814 81.2056 137.125V134.799C81.0979 134.928 80.861 135.047 80.495 135.154C80.1361 135.255 79.7197 135.345 79.246 135.424C78.7794 135.495 78.3236 135.56 77.8786 135.617C77.4407 135.668 77.0854 135.711 76.8126 135.747C76.1522 135.833 75.5349 135.973 74.9607 136.167C74.3936 136.353 73.9342 136.637 73.5825 137.017C73.238 137.39 73.0657 137.9 73.0657 138.546C73.0657 139.429 73.3923 140.097 74.0455 140.549C74.7059 140.994 75.5421 141.216 76.5542 141.216ZM76.6404 124.334L79.2675 119.338H82.2392L78.8799 124.334H76.6404ZM88.3845 149.313V126.573H90.8394V129.2H91.1409C91.3275 128.913 91.5859 128.547 91.9161 128.102C92.2535 127.65 92.7344 127.248 93.3589 126.896C93.9906 126.537 94.8447 126.358 95.9214 126.358C97.314 126.358 98.5414 126.706 99.6038 127.402C100.666 128.098 101.495 129.085 102.091 130.363C102.687 131.641 102.985 133.148 102.985 134.885C102.985 136.637 102.687 138.155 102.091 139.44C101.495 140.717 100.67 141.708 99.6145 142.411C98.5594 143.108 97.3427 143.456 95.9645 143.456C94.9022 143.456 94.0516 143.28 93.4127 142.928C92.7739 142.569 92.2822 142.164 91.9376 141.712C91.5931 141.252 91.3275 140.872 91.1409 140.57H90.9255V149.313H88.3845ZM90.8825 134.842C90.8825 136.091 91.0655 137.193 91.4316 138.148C91.7977 139.095 92.3324 139.838 93.0359 140.376C93.7393 140.908 94.6007 141.173 95.62 141.173C96.6823 141.173 97.5688 140.893 98.2794 140.333C98.9972 139.766 99.5356 139.005 99.8945 138.051C100.261 137.089 100.444 136.019 100.444 134.842C100.444 133.679 100.264 132.631 99.9053 131.698C99.5535 130.758 99.0188 130.015 98.301 129.469C97.5903 128.917 96.6967 128.64 95.62 128.64C94.5863 128.64 93.7178 128.902 93.0143 129.426C92.3109 129.943 91.7797 130.668 91.4208 131.601C91.0619 132.527 90.8825 133.608 90.8825 134.842ZM106.861 143.111V126.573H109.402V143.111H106.861ZM108.153 123.817C107.658 123.817 107.23 123.648 106.872 123.311C106.52 122.973 106.344 122.568 106.344 122.094C106.344 121.62 106.52 121.215 106.872 120.877C107.23 120.54 107.658 120.371 108.153 120.371C108.648 120.371 109.072 120.54 109.423 120.877C109.782 121.215 109.962 121.62 109.962 122.094C109.962 122.568 109.782 122.973 109.423 123.311C109.072 123.648 108.648 123.817 108.153 123.817ZM120.301 143.456C118.923 143.456 117.706 143.108 116.651 142.411C115.596 141.708 114.77 140.717 114.174 139.44C113.578 138.155 113.281 136.637 113.281 134.885C113.281 133.148 113.578 131.641 114.174 130.363C114.77 129.085 115.599 128.098 116.661 127.402C117.724 126.706 118.951 126.358 120.344 126.358C121.42 126.358 122.271 126.537 122.896 126.896C123.527 127.248 124.008 127.65 124.338 128.102C124.676 128.547 124.938 128.913 125.124 129.2H125.34V121.06H127.881V143.111H125.426V140.57H125.124C124.938 140.872 124.672 141.252 124.328 141.712C123.983 142.164 123.491 142.569 122.853 142.928C122.214 143.28 121.363 143.456 120.301 143.456ZM120.645 141.173C121.665 141.173 122.526 140.908 123.229 140.376C123.933 139.838 124.468 139.095 124.834 138.148C125.2 137.193 125.383 136.091 125.383 134.842C125.383 133.608 125.203 132.527 124.844 131.601C124.486 130.668 123.954 129.943 123.251 129.426C122.547 128.902 121.679 128.64 120.645 128.64C119.569 128.64 118.671 128.917 117.954 129.469C117.243 130.015 116.708 130.758 116.349 131.698C115.997 132.631 115.822 133.679 115.822 134.842C115.822 136.019 116.001 137.089 116.36 138.051C116.726 139.005 117.264 139.766 117.975 140.333C118.693 140.893 119.583 141.173 120.645 141.173ZM139.606 143.456C138.113 143.456 136.803 143.101 135.676 142.39C134.556 141.679 133.681 140.685 133.049 139.407C132.424 138.13 132.112 136.637 132.112 134.928C132.112 133.206 132.424 131.702 133.049 130.417C133.681 129.132 134.556 128.134 135.676 127.424C136.803 126.713 138.113 126.358 139.606 126.358C141.099 126.358 142.405 126.713 143.525 127.424C144.652 128.134 145.528 129.132 146.152 130.417C146.784 131.702 147.1 133.206 147.1 134.928C147.1 136.637 146.784 138.13 146.152 139.407C145.528 140.685 144.652 141.679 143.525 142.39C142.405 143.101 141.099 143.456 139.606 143.456ZM139.606 141.173C140.74 141.173 141.673 140.883 142.405 140.301C143.138 139.72 143.68 138.955 144.031 138.008C144.383 137.06 144.559 136.034 144.559 134.928C144.559 133.823 144.383 132.793 144.031 131.838C143.68 130.884 143.138 130.112 142.405 129.523C141.673 128.935 140.74 128.64 139.606 128.64C138.472 128.64 137.539 128.935 136.807 129.523C136.074 130.112 135.533 130.884 135.181 131.838C134.829 132.793 134.653 133.823 134.653 134.928C134.653 136.034 134.829 137.06 135.181 138.008C135.533 138.955 136.074 139.72 136.807 140.301C137.539 140.883 138.472 141.173 139.606 141.173ZM166.44 143.456C164.847 143.456 163.472 143.104 162.316 142.401C161.168 141.69 160.281 140.7 159.657 139.429C159.04 138.151 158.731 136.665 158.731 134.971C158.731 133.277 159.04 131.784 159.657 130.492C160.281 129.193 161.15 128.181 162.263 127.456C163.382 126.724 164.689 126.358 166.182 126.358C167.043 126.358 167.894 126.501 168.734 126.788C169.573 127.076 170.338 127.542 171.027 128.188C171.716 128.827 172.265 129.674 172.674 130.729C173.083 131.784 173.288 133.084 173.288 134.627V135.704H160.54V133.507H170.704C170.704 132.574 170.517 131.741 170.144 131.009C169.778 130.277 169.254 129.699 168.572 129.276C167.897 128.852 167.101 128.64 166.182 128.64C165.17 128.64 164.294 128.892 163.555 129.394C162.822 129.889 162.259 130.535 161.864 131.332C161.469 132.129 161.272 132.983 161.272 133.895V135.359C161.272 136.608 161.487 137.667 161.918 138.535C162.356 139.397 162.962 140.053 163.738 140.506C164.513 140.951 165.414 141.173 166.44 141.173C167.108 141.173 167.711 141.08 168.249 140.893C168.795 140.7 169.265 140.412 169.66 140.032C170.054 139.644 170.359 139.163 170.575 138.589L173.03 139.278C172.771 140.111 172.337 140.843 171.727 141.475C171.117 142.099 170.363 142.587 169.466 142.939C168.568 143.284 167.56 143.456 166.44 143.456Z" fill="#203A4A"/>
<path d="M67.2357 177.683V154.943H69.6906V157.57H69.9921C70.1787 157.283 70.4371 156.917 70.7673 156.472C71.1047 156.02 71.5856 155.618 72.2101 155.266C72.8418 154.907 73.6959 154.728 74.7726 154.728C76.1652 154.728 77.3926 155.076 78.455 155.772C79.5173 156.469 80.3464 157.456 80.9422 158.733C81.5379 160.011 81.8358 161.518 81.8358 163.255C81.8358 165.007 81.5379 166.525 80.9422 167.81C80.3464 169.088 79.5209 170.078 78.4657 170.782C77.4106 171.478 76.1939 171.826 74.8157 171.826C73.7534 171.826 72.9028 171.65 72.2639 171.298C71.6251 170.94 71.1334 170.534 70.7888 170.082C70.4443 169.622 70.1787 169.242 69.9921 168.94H69.7767V177.683H67.2357ZM69.7337 163.212C69.7337 164.461 69.9167 165.563 70.2828 166.518C70.6489 167.465 71.1836 168.208 71.8871 168.747C72.5905 169.278 73.4519 169.543 74.4712 169.543C75.5335 169.543 76.42 169.263 77.1306 168.704C77.8484 168.136 78.3868 167.376 78.7457 166.421C79.1118 165.459 79.2948 164.39 79.2948 163.212C79.2948 162.05 79.1154 161.002 78.7565 160.068C78.4047 159.128 77.87 158.385 77.1522 157.84C76.4415 157.287 75.5479 157.011 74.4712 157.011C73.4375 157.011 72.569 157.273 71.8655 157.797C71.1621 158.313 70.6309 159.038 70.272 159.971C69.9131 160.897 69.7337 161.978 69.7337 163.212ZM85.712 171.481V154.943H88.1669V157.441H88.3391C88.6406 156.623 89.1861 155.959 89.9757 155.449C90.7653 154.94 91.6554 154.685 92.6459 154.685C92.8326 154.685 93.0659 154.688 93.3458 154.696C93.6257 154.703 93.8375 154.714 93.9811 154.728V157.312C93.8949 157.29 93.6975 157.258 93.3889 157.215C93.0874 157.165 92.768 157.14 92.4306 157.14C91.6267 157.14 90.9089 157.308 90.2772 157.646C89.6527 157.976 89.1574 158.435 88.7913 159.024C88.4324 159.605 88.253 160.269 88.253 161.016V171.481H85.712ZM101.86 171.869C100.812 171.869 99.8608 171.672 99.0066 171.277C98.1524 170.875 97.4741 170.297 96.9716 169.543C96.4691 168.783 96.2179 167.864 96.2179 166.787C96.2179 165.84 96.4045 165.071 96.7778 164.483C97.1511 163.887 97.6499 163.421 98.2744 163.083C98.8989 162.746 99.588 162.495 100.342 162.329C101.103 162.157 101.867 162.021 102.635 161.92C103.64 161.791 104.455 161.694 105.079 161.63C105.711 161.558 106.17 161.439 106.457 161.274C106.752 161.109 106.899 160.822 106.899 160.413V160.327C106.899 159.264 106.608 158.439 106.027 157.85C105.452 157.262 104.58 156.967 103.41 156.967C102.197 156.967 101.246 157.233 100.557 157.764C99.8679 158.295 99.3834 158.862 99.1035 159.465L96.6917 158.604C97.1223 157.599 97.6966 156.817 98.4144 156.257C99.1394 155.69 99.929 155.295 100.783 155.072C101.645 154.843 102.492 154.728 103.324 154.728C103.855 154.728 104.465 154.793 105.155 154.922C105.851 155.044 106.522 155.299 107.168 155.686C107.821 156.074 108.363 156.659 108.794 157.441C109.225 158.224 109.44 159.272 109.44 160.585V171.481H106.899V169.242H106.77C106.597 169.601 106.31 169.985 105.908 170.394C105.506 170.803 104.972 171.151 104.304 171.438C103.636 171.725 102.822 171.869 101.86 171.869ZM102.247 169.586C103.252 169.586 104.099 169.389 104.788 168.994C105.485 168.599 106.009 168.09 106.36 167.465C106.719 166.841 106.899 166.184 106.899 165.495V163.169C106.791 163.298 106.554 163.417 106.188 163.525C105.829 163.625 105.413 163.715 104.939 163.794C104.473 163.866 104.017 163.93 103.572 163.988C103.134 164.038 102.779 164.081 102.506 164.117C101.845 164.203 101.228 164.343 100.654 164.537C100.087 164.723 99.6275 165.007 99.2758 165.387C98.9312 165.761 98.7589 166.27 98.7589 166.916C98.7589 167.799 99.0855 168.467 99.7387 168.919C100.399 169.364 101.235 169.586 102.247 169.586ZM102.334 152.704L104.961 147.708H107.932L104.573 152.704H102.334ZM121.27 154.943V157.097H112.7V154.943H121.27ZM115.198 150.981H117.739V166.744C117.739 167.462 117.843 168 118.051 168.359C118.266 168.711 118.539 168.948 118.869 169.07C119.206 169.184 119.562 169.242 119.935 169.242C120.215 169.242 120.445 169.228 120.624 169.199C120.804 169.163 120.947 169.134 121.055 169.113L121.572 171.395C121.399 171.46 121.159 171.525 120.85 171.589C120.542 171.661 120.15 171.697 119.677 171.697C118.959 171.697 118.255 171.542 117.566 171.234C116.884 170.925 116.317 170.455 115.865 169.823C115.42 169.192 115.198 168.395 115.198 167.433V150.981ZM125.092 171.481V154.943H127.633V171.481H125.092ZM126.384 152.187C125.889 152.187 125.462 152.018 125.103 151.681C124.751 151.343 124.576 150.938 124.576 150.464C124.576 149.99 124.751 149.585 125.103 149.247C125.462 148.91 125.889 148.741 126.384 148.741C126.88 148.741 127.303 148.91 127.655 149.247C128.014 149.585 128.193 149.99 128.193 150.464C128.193 150.938 128.014 151.343 127.655 151.681C127.303 152.018 126.88 152.187 126.384 152.187ZM139.006 171.826C137.456 171.826 136.121 171.46 135.001 170.728C133.881 169.996 133.02 168.987 132.417 167.702C131.814 166.417 131.512 164.949 131.512 163.298C131.512 161.619 131.821 160.137 132.438 158.852C133.063 157.56 133.931 156.551 135.044 155.826C136.164 155.094 137.47 154.728 138.963 154.728C140.126 154.728 141.174 154.943 142.107 155.374C143.04 155.805 143.805 156.408 144.4 157.183C144.996 157.958 145.366 158.862 145.509 159.896H142.968C142.775 159.142 142.344 158.475 141.676 157.893C141.016 157.305 140.126 157.011 139.006 157.011C138.016 157.011 137.147 157.269 136.401 157.786C135.661 158.295 135.083 159.017 134.667 159.95C134.258 160.876 134.053 161.963 134.053 163.212C134.053 164.49 134.254 165.603 134.656 166.55C135.065 167.498 135.64 168.233 136.379 168.757C137.126 169.281 138.001 169.543 139.006 169.543C139.667 169.543 140.266 169.429 140.804 169.199C141.343 168.969 141.798 168.639 142.172 168.208C142.545 167.778 142.811 167.261 142.968 166.658H145.509C145.366 167.634 145.011 168.513 144.444 169.296C143.884 170.071 143.141 170.688 142.215 171.148C141.296 171.6 140.226 171.826 139.006 171.826ZM155.943 171.826C154.45 171.826 153.14 171.471 152.013 170.76C150.893 170.049 150.017 169.055 149.386 167.778C148.761 166.5 148.449 165.007 148.449 163.298C148.449 161.576 148.761 160.072 149.386 158.787C150.017 157.502 150.893 156.504 152.013 155.794C153.14 155.083 154.45 154.728 155.943 154.728C157.436 154.728 158.742 155.083 159.862 155.794C160.989 156.504 161.865 157.502 162.489 158.787C163.121 160.072 163.437 161.576 163.437 163.298C163.437 165.007 163.121 166.5 162.489 167.778C161.865 169.055 160.989 170.049 159.862 170.76C158.742 171.471 157.436 171.826 155.943 171.826ZM155.943 169.543C157.077 169.543 158.01 169.253 158.742 168.671C159.474 168.09 160.016 167.325 160.368 166.378C160.72 165.43 160.896 164.404 160.896 163.298C160.896 162.193 160.72 161.163 160.368 160.208C160.016 159.254 159.474 158.482 158.742 157.893C158.01 157.305 157.077 157.011 155.943 157.011C154.809 157.011 153.875 157.305 153.143 157.893C152.411 158.482 151.869 159.254 151.517 160.208C151.166 161.163 150.99 162.193 150.99 163.298C150.99 164.404 151.166 165.43 151.517 166.378C151.869 167.325 152.411 168.09 153.143 168.671C153.875 169.253 154.809 169.543 155.943 169.543Z" fill="#203A4A"/>
<path d="M115.52 76.2508C115.48 76.4708 115.45 76.6207 115.41 76.7707C112.89 86.4807 110.37 96.1808 107.86 105.891C107.52 107.201 107.17 108.511 106.84 109.831C106.68 110.481 106.93 111.031 107.48 111.271C108.01 111.511 108.55 111.341 108.95 110.821C109 110.751 109.05 110.681 109.1 110.621C119.09 96.7508 129.08 82.8907 139.07 69.0207C139.98 67.7507 140.89 66.4908 141.8 65.2208C142.09 64.8208 142.16 64.3807 141.93 63.9307C141.71 63.5007 141.33 63.3007 140.85 63.3007C140.68 63.3007 140.51 63.3007 140.34 63.3007C134.61 63.3007 128.87 63.3007 123.14 63.3007C122.93 63.3007 122.71 63.3007 122.46 63.3007C122.49 63.1207 122.5 63.0008 122.53 62.8908C125.07 51.9008 127.61 40.9107 130.15 29.9107C130.21 29.6607 130.27 29.4107 130.25 29.1607C130.22 28.6607 129.85 28.2608 129.39 28.1408C128.84 28.0008 128.4 28.2107 127.98 28.8107C117.43 43.9207 106.89 59.0308 96.3301 74.1408C96.0001 74.6108 95.7801 75.0808 96.0901 75.6408C96.3801 76.1808 96.8801 76.2508 97.4401 76.2508C103.24 76.2508 109.04 76.2508 114.84 76.2508H115.51H115.52Z" fill="#203A4A"/>
</g>
<defs>
<filter id="filter0_d_1004_1628" x="0.300049" y="0.000488281" width="247.22" height="235.25" filterUnits="userSpaceOnUse" color-interpolation-filters="sRGB">
<feFlood flood-opacity="0" result="BackgroundImageFix"/>
<feColorMatrix in="SourceAlpha" type="matrix" values="0 0 0 0 0 0 0 0 0 0 0 0 0 0 0 0 0 0 127 0" result="hardAlpha"/>
<feOffset dx="4.06" dy="8.12"/>
<feGaussianBlur stdDeviation="2.03"/>
<feColorMatrix type="matrix" values="0 0 0 0 0.113725 0 0 0 0 0.113725 0 0 0 0 0.105882 0 0 0 0.2 0"/>
<feBlend mode="normal" in2="BackgroundImageFix" result="effect1_dropShadow_1004_1628"/>
<feBlend mode="normal" in="SourceGraphic" in2="effect1_dropShadow_1004_1628" result="shape"/>
</filter>
<clipPath id="clip0_1004_1628">
<rect width="252" height="238" fill="white"/>
</clipPath>
</defs>
</svg>
