<svg width="252" height="233" viewBox="0 0 252 233" fill="none" xmlns="http://www.w3.org/2000/svg">
<g clip-path="url(#clip0_1004_1030)">
<g filter="url(#filter0_d_1004_1030)">
<path d="M208.25 0H30.85C13.812 0 0 13.812 0 30.85V192.22C0 209.258 13.812 223.07 30.85 223.07H208.25C225.288 223.07 239.1 209.258 239.1 192.22V30.85C239.1 13.812 225.288 0 208.25 0Z" fill="#D5ECF2"/>
</g>
<mask id="mask0_1004_1030" style="mask-type:luminance" maskUnits="userSpaceOnUse" x="0" y="0" width="240" height="224">
<path d="M208.25 0H30.85C13.812 0 0 13.812 0 30.85V192.22C0 209.258 13.812 223.07 30.85 223.07H208.25C225.288 223.07 239.1 209.258 239.1 192.22V30.85C239.1 13.812 225.288 0 208.25 0Z" fill="white"/>
</mask>
<g mask="url(#mask0_1004_1030)">
<path d="M-57.0601 128.4C-56.8401 121.97 -55.2701 115.96 -50.0501 111.8C-46.8201 109.22 -43.0101 107.38 -38.9001 104.87C-39.8201 102.39 -41.0501 99.36 -42.0601 96.26C-44.9801 87.3 -40.9801 78.08 -32.1601 74.73C-8.96006 65.93 14.3399 57.4101 37.6199 48.8301C42.8299 46.9101 47.8599 47.51 52.6799 50.36C53.4299 50.81 54.9099 50.94 55.5799 50.5C75.6799 37.28 93.94 21.8801 110 3.9401C124.27 -11.9999 136.47 -29.32 144.91 -49.11C146.2 -52.1399 147.14 -55.38 148.85 -58.15C153.8 -66.19 164.07 -66 168.89 -57.9C170.1 -55.86 171.14 -53.6699 171.96 -51.4399C198.86 21.1401 225.74 93.72 252.51 166.35C253.74 169.68 254.61 173.46 254.39 176.96C253.84 185.82 244.66 189.92 236.16 185.16C223.54 178.1 210.14 173.15 196.17 169.71C165.65 162.19 134.77 160.54 103.53 164.03C98.75 164.56 96.06 165.72 93.6199 170.31C91.53 174.23 86.7299 176.7 82.7699 180.12C86.59 185.85 90.9699 192.45 95.3799 199.01C107.46 217 119.63 234.92 131.62 252.97C139.48 264.79 136.66 276.45 123.96 282.4C115.86 286.19 107.28 289.18 98.64 291.51C87.5099 294.52 77.0099 289.96 70.5299 280.34C53.8099 255.5 37.1299 230.62 20.4299 205.76C19.7399 204.74 19.0199 203.74 18.2299 202.61C11.9799 205.12 6.01994 205.12 0.239944 201.41C-5.40005 197.79 -6.66006 191.56 -9.01006 185.97C-12.0001 186.86 -14.6501 187.96 -17.4001 188.39C-25.7501 189.71 -32.5001 186.69 -37.8501 180.29C-44.2501 162.99 -50.6501 145.7 -57.0501 128.4H-57.0601ZM158.63 -36.0799C157.92 -34.7999 157.42 -33.9599 156.99 -33.0799C147.95 -14.9399 136.16 1.30001 122.53 16.22C106.48 33.79 88.8499 49.55 68.8699 62.6C64.5799 65.4 63.5399 68.5701 65.2099 73.0901C73.5999 95.8301 82.0099 118.56 90.45 141.28C92.09 145.71 94.9999 147.36 99.7399 146.89C105.94 146.27 112.13 145.42 118.35 145.15C150.22 143.74 181.67 146.39 212.28 155.96C218.96 158.05 225.48 160.61 232.35 163.05C207.81 96.7401 183.34 30.6301 158.65 -36.0899L158.63 -36.0799ZM43.3699 65.4501C42.5699 65.6301 42.1199 65.6901 41.7099 65.8401C20.1499 73.8101 -1.39006 81.8201 -22.9701 89.7101C-25.4501 90.6201 -25.2601 91.7901 -24.5101 93.8101C-13.4001 123.67 -2.36006 153.56 8.69994 183.44C9.07994 184.48 9.46994 185.51 9.89994 186.67C33.0899 178.09 55.8599 169.66 78.7999 161.17C66.9699 129.2 55.2099 97.4401 43.3699 65.4501ZM118.92 265.63C100.77 238.56 82.9099 211.92 65.1199 185.39C54.9999 189.13 45.3399 192.71 35.4199 196.38C36.9699 198.76 38.3599 200.96 39.8099 203.11C54.8499 225.51 69.9299 247.89 84.9299 270.31C87.2 273.7 90.41 275.8 94.14 274.65C102.25 272.14 110.12 268.89 118.93 265.63H118.92ZM-30.9601 148.24H-30.9401C-28.4101 155.06 -25.7701 161.84 -23.4201 168.73C-22.4501 171.57 -20.6201 171.43 -18.6301 170.63C-16.7201 169.85 -15.1901 168.83 -16.2701 166C-21.3901 152.62 -26.3501 139.17 -31.2201 125.7C-32.2301 122.92 -33.7501 122.64 -36.1801 123.49C-38.7301 124.39 -39.4001 125.78 -38.3501 128.42C-35.7501 134.97 -33.4101 141.63 -30.9601 148.24Z" fill="#E1F2F7"/>
<path d="M284.61 44.1802C285.62 49.5002 286.76 54.7901 287.62 60.1301C290.19 76.0301 289.32 91.7901 285.36 107.37C284.13 112.22 279.59 114.82 274.85 113.77C270.42 112.79 267.35 108.14 268.41 103.27C270.45 93.9101 271.83 84.5101 271.32 74.9201C269.54 41.7001 256.3 14.3202 229.84 -6.28982C227.22 -8.32982 224.43 -10.2599 224.07 -13.8999C223.72 -17.3999 224.68 -20.4699 227.9 -22.3999C231.36 -24.4699 235.04 -24.6299 238.09 -21.9899C245.11 -15.9199 252.28 -9.93986 258.64 -3.20986C266.14 4.73014 271.86 14.0601 276.48 24.0101C276.85 24.8101 277.47 25.5001 277.98 26.2501C280.19 32.2301 282.41 38.2102 284.62 44.1902L284.61 44.1802Z" fill="#E1F2F7"/>
<path d="M247.45 48.04C252.61 62.71 253.9 77.98 250.03 93.57C249.09 97.36 246.81 99.7299 242.92 100.49C239.58 101.14 236.82 100.13 234.77 97.4899C232.77 94.9199 232.38 92.02 233.12 88.8C236.56 73.87 234.34 59.67 227.28 46.18C223.12 38.23 217.66 31.34 210.31 26.06C207.82 24.27 205.82 22.11 205.64 18.9C205.45 15.54 206.37 12.49 209.55 10.78C213.12 8.84998 216.6 8.83998 220.08 11.4C232.81 20.77 241.67 33 247.45 48.05V48.04Z" fill="#E1F2F7"/>
</g>
<path d="M68.8045 122.03H66.1342C65.9763 121.262 65.7 120.588 65.3052 120.006C64.9176 119.425 64.4438 118.937 63.8839 118.542C63.3312 118.14 62.7175 117.838 62.0428 117.637C61.368 117.436 60.6646 117.336 59.9324 117.336C58.5973 117.336 57.3878 117.673 56.3039 118.348C55.2272 119.023 54.3694 120.017 53.7306 121.331C53.0989 122.644 52.7831 124.256 52.7831 126.165C52.7831 128.074 53.0989 129.686 53.7306 130.999C54.3694 132.313 55.2272 133.307 56.3039 133.982C57.3878 134.657 58.5973 134.994 59.9324 134.994C60.6646 134.994 61.368 134.893 62.0428 134.692C62.7175 134.491 63.3312 134.194 63.8839 133.799C64.4438 133.397 64.9176 132.905 65.3052 132.324C65.7 131.735 65.9763 131.06 66.1342 130.3H68.8045C68.6035 131.426 68.2374 132.435 67.7062 133.325C67.175 134.215 66.5147 134.972 65.7251 135.597C64.9355 136.214 64.049 136.684 63.0656 137.007C62.0894 137.33 61.045 137.492 59.9324 137.492C58.0518 137.492 56.3793 137.033 54.915 136.114C53.4506 135.195 52.2986 133.889 51.4587 132.195C50.6189 130.501 50.199 128.491 50.199 126.165C50.199 123.839 50.6189 121.829 51.4587 120.135C52.2986 118.441 53.4506 117.135 54.915 116.216C56.3793 115.297 58.0518 114.838 59.9324 114.838C61.045 114.838 62.0894 115 63.0656 115.323C64.049 115.646 64.9355 116.119 65.7251 116.744C66.5147 117.361 67.175 118.115 67.7062 119.005C68.2374 119.888 68.6035 120.896 68.8045 122.03ZM77.6415 137.578C76.5935 137.578 75.6424 137.381 74.7882 136.986C73.9341 136.584 73.2557 136.006 72.7533 135.252C72.2508 134.491 71.9996 133.573 71.9996 132.496C71.9996 131.548 72.1862 130.78 72.5595 130.192C72.9327 129.596 73.4316 129.13 74.0561 128.792C74.6806 128.455 75.3697 128.204 76.1234 128.038C76.8842 127.866 77.6487 127.73 78.4167 127.629C79.4217 127.5 80.2364 127.403 80.8609 127.339C81.4925 127.267 81.9519 127.148 82.239 126.983C82.5333 126.818 82.6805 126.531 82.6805 126.122V126.036C82.6805 124.973 82.3898 124.148 81.8084 123.559C81.2341 122.971 80.362 122.676 79.192 122.676C77.9789 122.676 77.0278 122.942 76.3387 123.473C75.6496 124.004 75.1651 124.571 74.8851 125.174L72.4733 124.313C72.904 123.308 73.4783 122.526 74.1961 121.966C74.921 121.399 75.7106 121.004 76.5648 120.781C77.4262 120.552 78.2732 120.437 79.1058 120.437C79.637 120.437 80.2471 120.502 80.9362 120.631C81.6325 120.753 82.3036 121.008 82.9497 121.395C83.6029 121.783 84.1448 122.368 84.5755 123.15C85.0062 123.933 85.2215 124.981 85.2215 126.294V137.19H82.6805V134.951H82.5513C82.379 135.31 82.0919 135.694 81.6899 136.103C81.2879 136.512 80.7532 136.86 80.0856 137.147C79.4181 137.434 78.6034 137.578 77.6415 137.578ZM78.0291 135.295C79.034 135.295 79.8811 135.098 80.5701 134.703C81.2664 134.308 81.7904 133.799 82.1421 133.174C82.501 132.55 82.6805 131.893 82.6805 131.204V128.878C82.5728 129.007 82.3359 129.126 81.9699 129.234C81.611 129.334 81.1946 129.424 80.7209 129.503C80.2543 129.575 79.7985 129.639 79.3535 129.697C78.9156 129.747 78.5603 129.79 78.2875 129.826C77.6272 129.912 77.0098 130.052 76.4356 130.246C75.8685 130.432 75.4091 130.716 75.0574 131.096C74.7129 131.47 74.5406 131.979 74.5406 132.625C74.5406 133.508 74.8672 134.176 75.5204 134.628C76.1808 135.073 77.017 135.295 78.0291 135.295ZM92.4004 127.242V137.19H89.8594V120.652H92.3143V123.236H92.5296C92.9173 122.397 93.5059 121.722 94.2954 121.212C95.085 120.695 96.1043 120.437 97.3533 120.437C98.473 120.437 99.4528 120.667 100.293 121.126C101.133 121.578 101.786 122.267 102.252 123.193C102.719 124.112 102.952 125.275 102.952 126.682V137.19H100.411V126.854C100.411 125.555 100.074 124.543 99.399 123.818C98.7243 123.086 97.7983 122.72 96.6211 122.72C95.81 122.72 95.085 122.895 94.4462 123.247C93.8145 123.599 93.3156 124.112 92.9496 124.787C92.5835 125.462 92.4004 126.28 92.4004 127.242ZM112.462 137.578C111.414 137.578 110.463 137.381 109.609 136.986C108.755 136.584 108.076 136.006 107.574 135.252C107.071 134.491 106.82 133.573 106.82 132.496C106.82 131.548 107.007 130.78 107.38 130.192C107.753 129.596 108.252 129.13 108.877 128.792C109.501 128.455 110.19 128.204 110.944 128.038C111.705 127.866 112.469 127.73 113.237 127.629C114.242 127.5 115.057 127.403 115.681 127.339C116.313 127.267 116.773 127.148 117.06 126.983C117.354 126.818 117.501 126.531 117.501 126.122V126.036C117.501 124.973 117.21 124.148 116.629 123.559C116.055 122.971 115.183 122.676 114.013 122.676C112.799 122.676 111.848 122.942 111.159 123.473C110.47 124.004 109.986 124.571 109.706 125.174L107.294 124.313C107.725 123.308 108.299 122.526 109.017 121.966C109.742 121.399 110.531 121.004 111.385 120.781C112.247 120.552 113.094 120.437 113.926 120.437C114.458 120.437 115.068 120.502 115.757 120.631C116.453 120.753 117.124 121.008 117.77 121.395C118.423 121.783 118.965 122.368 119.396 123.15C119.827 123.933 120.042 124.981 120.042 126.294V137.19H117.501V134.951H117.372C117.2 135.31 116.913 135.694 116.511 136.103C116.109 136.512 115.574 136.86 114.906 137.147C114.239 137.434 113.424 137.578 112.462 137.578ZM112.85 135.295C113.855 135.295 114.702 135.098 115.391 134.703C116.087 134.308 116.611 133.799 116.963 133.174C117.322 132.55 117.501 131.893 117.501 131.204V128.878C117.393 129.007 117.157 129.126 116.79 129.234C116.432 129.334 116.015 129.424 115.542 129.503C115.075 129.575 114.619 129.639 114.174 129.697C113.736 129.747 113.381 129.79 113.108 129.826C112.448 129.912 111.83 130.052 111.256 130.246C110.689 130.432 110.23 130.716 109.878 131.096C109.533 131.47 109.361 131.979 109.361 132.625C109.361 133.508 109.688 134.176 110.341 134.628C111.001 135.073 111.838 135.295 112.85 135.295ZM127.221 115.14V137.19H124.68V115.14H127.221ZM146.648 137.535C145.269 137.535 144.053 137.187 142.997 136.491C141.942 135.787 141.117 134.797 140.521 133.519C139.925 132.234 139.627 130.716 139.627 128.964C139.627 127.227 139.925 125.72 140.521 124.442C141.117 123.165 141.946 122.178 143.008 121.481C144.071 120.785 145.298 120.437 146.691 120.437C147.767 120.437 148.618 120.616 149.242 120.975C149.874 121.327 150.355 121.729 150.685 122.181C151.023 122.626 151.285 122.992 151.471 123.279H151.686V115.14H154.228V137.19H151.773V134.649H151.471C151.285 134.951 151.019 135.331 150.674 135.791C150.33 136.243 149.838 136.648 149.199 137.007C148.56 137.359 147.71 137.535 146.648 137.535ZM146.992 135.252C148.011 135.252 148.873 134.987 149.576 134.456C150.28 133.917 150.814 133.174 151.18 132.227C151.547 131.272 151.73 130.17 151.73 128.921C151.73 127.687 151.55 126.606 151.191 125.68C150.832 124.747 150.301 124.022 149.598 123.506C148.894 122.982 148.026 122.72 146.992 122.72C145.915 122.72 145.018 122.996 144.3 123.549C143.59 124.094 143.055 124.837 142.696 125.777C142.344 126.711 142.168 127.758 142.168 128.921C142.168 130.099 142.348 131.168 142.707 132.13C143.073 133.085 143.611 133.845 144.322 134.413C145.04 134.972 145.93 135.252 146.992 135.252ZM166.168 137.535C164.575 137.535 163.2 137.183 162.044 136.48C160.896 135.769 160.009 134.779 159.385 133.508C158.768 132.23 158.459 130.745 158.459 129.051C158.459 127.357 158.768 125.863 159.385 124.571C160.009 123.272 160.878 122.26 161.991 121.535C163.11 120.803 164.417 120.437 165.91 120.437C166.771 120.437 167.622 120.58 168.462 120.868C169.301 121.155 170.066 121.621 170.755 122.267C171.444 122.906 171.993 123.753 172.402 124.808C172.811 125.863 173.016 127.163 173.016 128.706V129.783H160.268V127.586H170.432C170.432 126.653 170.245 125.82 169.872 125.088C169.506 124.356 168.982 123.778 168.3 123.355C167.625 122.931 166.829 122.72 165.91 122.72C164.898 122.72 164.022 122.971 163.283 123.473C162.55 123.968 161.987 124.615 161.592 125.411C161.197 126.208 161 127.062 161 127.974V129.438C161 130.687 161.215 131.746 161.646 132.614C162.084 133.476 162.69 134.133 163.466 134.585C164.241 135.03 165.142 135.252 166.168 135.252C166.836 135.252 167.439 135.159 167.977 134.972C168.523 134.779 168.993 134.491 169.387 134.111C169.782 133.723 170.087 133.243 170.303 132.668L172.758 133.357C172.499 134.19 172.065 134.922 171.455 135.554C170.845 136.178 170.091 136.666 169.194 137.018C168.296 137.363 167.288 137.535 166.168 137.535Z" fill="#203A4A"/>
<path d="M26.6558 165.561V149.022H29.1968V165.561H26.6558ZM27.9478 146.266C27.4525 146.266 27.0254 146.097 26.6665 145.76C26.3148 145.423 26.1389 145.017 26.1389 144.543C26.1389 144.07 26.3148 143.664 26.6665 143.327C27.0254 142.989 27.4525 142.821 27.9478 142.821C28.4431 142.821 28.8666 142.989 29.2183 143.327C29.5772 143.664 29.7567 144.07 29.7567 144.543C29.7567 145.017 29.5772 145.423 29.2183 145.76C28.8666 146.097 28.4431 146.266 27.9478 146.266ZM36.3919 155.612V165.561H33.8508V149.022H36.3057V151.606H36.5211C36.9087 150.767 37.4973 150.092 38.2869 149.582C39.0764 149.065 40.0957 148.807 41.3447 148.807C42.4645 148.807 43.4443 149.037 44.2841 149.496C45.1239 149.948 45.7771 150.637 46.2437 151.563C46.7103 152.482 46.9436 153.645 46.9436 155.052V165.561H44.4025V155.224C44.4025 153.925 44.0652 152.913 43.3904 152.188C42.7157 151.456 41.7897 151.09 40.6125 151.09C39.8014 151.09 39.0764 151.265 38.4376 151.617C37.8059 151.969 37.3071 152.482 36.941 153.157C36.5749 153.832 36.3919 154.65 36.3919 155.612ZM58.9515 149.022V151.176H50.0364V149.022H58.9515ZM52.7066 165.561V146.74C52.7066 145.792 52.9291 145.003 53.3742 144.371C53.8192 143.739 54.3971 143.266 55.1077 142.95C55.8183 142.634 56.5684 142.476 57.358 142.476C57.9825 142.476 58.4921 142.526 58.8869 142.627C59.2817 142.727 59.576 142.821 59.7698 142.907L59.0376 145.103C58.9084 145.06 58.729 145.006 58.4993 144.942C58.2768 144.877 57.9825 144.845 57.6164 144.845C56.7766 144.845 56.17 145.057 55.7968 145.48C55.4307 145.904 55.2476 146.524 55.2476 147.343V165.561H52.7066ZM68.5503 165.905C67.0573 165.905 65.7473 165.55 64.6204 164.839C63.5006 164.129 62.6249 163.134 61.9932 161.857C61.3687 160.579 61.0565 159.086 61.0565 157.378C61.0565 155.655 61.3687 154.151 61.9932 152.866C62.6249 151.581 63.5006 150.584 64.6204 149.873C65.7473 149.162 67.0573 148.807 68.5503 148.807C70.0434 148.807 71.3498 149.162 72.4695 149.873C73.5965 150.584 74.4722 151.581 75.0967 152.866C75.7284 154.151 76.0442 155.655 76.0442 157.378C76.0442 159.086 75.7284 160.579 75.0967 161.857C74.4722 163.134 73.5965 164.129 72.4695 164.839C71.3498 165.55 70.0434 165.905 68.5503 165.905ZM68.5503 163.622C69.6845 163.622 70.6176 163.332 71.3498 162.75C72.0819 162.169 72.6239 161.404 72.9756 160.457C73.3273 159.509 73.5032 158.483 73.5032 157.378C73.5032 156.272 73.3273 155.242 72.9756 154.287C72.6239 153.333 72.0819 152.561 71.3498 151.973C70.6176 151.384 69.6845 151.09 68.5503 151.09C67.4162 151.09 66.4831 151.384 65.7509 151.973C65.0187 152.561 64.4768 153.333 64.1251 154.287C63.7734 155.242 63.5975 156.272 63.5975 157.378C63.5975 158.483 63.7734 159.509 64.1251 160.457C64.4768 161.404 65.0187 162.169 65.7509 162.75C66.4831 163.332 67.4162 163.622 68.5503 163.622ZM79.923 165.561V149.022H82.3779V151.52H82.5502C82.8517 150.702 83.3972 150.038 84.1868 149.528C84.9764 149.019 85.8664 148.764 86.857 148.764C87.0436 148.764 87.2769 148.768 87.5569 148.775C87.8368 148.782 88.0486 148.793 88.1921 148.807V151.391C88.106 151.37 87.9086 151.337 87.5999 151.294C87.2985 151.244 86.979 151.219 86.6417 151.219C85.8377 151.219 85.1199 151.388 84.4883 151.725C83.8638 152.055 83.3685 152.514 83.0024 153.103C82.6435 153.684 82.464 154.348 82.464 155.095V165.561H79.923ZM91.2042 165.561V149.022H93.6591V151.606H93.8744C94.219 150.724 94.7753 150.038 95.5433 149.55C96.3114 149.055 97.2337 148.807 98.3104 148.807C99.4015 148.807 100.31 149.055 101.035 149.55C101.767 150.038 102.337 150.724 102.746 151.606H102.919C103.342 150.752 103.978 150.074 104.825 149.571C105.672 149.062 106.687 148.807 107.872 148.807C109.35 148.807 110.56 149.27 111.5 150.196C112.44 151.115 112.911 152.547 112.911 154.492V165.561H110.37V154.492C110.37 153.272 110.036 152.4 109.368 151.876C108.701 151.352 107.915 151.09 107.01 151.09C105.847 151.09 104.947 151.441 104.308 152.145C103.669 152.841 103.349 153.724 103.349 154.794V165.561H100.765V154.234C100.765 153.293 100.46 152.536 99.8501 151.962C99.24 151.38 98.454 151.09 97.4922 151.09C96.8318 151.09 96.2145 151.265 95.6402 151.617C95.0732 151.969 94.6138 152.457 94.262 153.082C93.9175 153.699 93.7452 154.413 93.7452 155.224V165.561H91.2042ZM122.423 165.948C121.375 165.948 120.424 165.751 119.57 165.356C118.716 164.954 118.037 164.376 117.535 163.622C117.033 162.862 116.781 161.943 116.781 160.866C116.781 159.919 116.968 159.151 117.341 158.562C117.714 157.966 118.213 157.5 118.838 157.162C119.462 156.825 120.151 156.574 120.905 156.409C121.666 156.236 122.43 156.1 123.198 155.999C124.203 155.87 125.018 155.773 125.643 155.709C126.274 155.637 126.734 155.518 127.021 155.353C127.315 155.188 127.462 154.901 127.462 154.492V154.406C127.462 153.344 127.172 152.518 126.59 151.929C126.016 151.341 125.144 151.047 123.974 151.047C122.761 151.047 121.81 151.312 121.12 151.843C120.431 152.375 119.947 152.942 119.667 153.545L117.255 152.683C117.686 151.678 118.26 150.896 118.978 150.336C119.703 149.769 120.492 149.374 121.347 149.152C122.208 148.922 123.055 148.807 123.888 148.807C124.419 148.807 125.029 148.872 125.718 149.001C126.414 149.123 127.085 149.378 127.731 149.765C128.385 150.153 128.927 150.738 129.357 151.52C129.788 152.303 130.003 153.351 130.003 154.664V165.561H127.462V163.321H127.333C127.161 163.68 126.874 164.064 126.472 164.473C126.07 164.882 125.535 165.23 124.867 165.517C124.2 165.805 123.385 165.948 122.423 165.948ZM122.811 163.666C123.816 163.666 124.663 163.468 125.352 163.073C126.048 162.679 126.572 162.169 126.924 161.544C127.283 160.92 127.462 160.263 127.462 159.574V157.248C127.355 157.378 127.118 157.496 126.752 157.604C126.393 157.704 125.976 157.794 125.503 157.873C125.036 157.945 124.58 158.009 124.135 158.067C123.697 158.117 123.342 158.16 123.069 158.196C122.409 158.282 121.792 158.422 121.217 158.616C120.65 158.802 120.191 159.086 119.839 159.466C119.495 159.84 119.322 160.349 119.322 160.995C119.322 161.878 119.649 162.546 120.302 162.998C120.963 163.443 121.799 163.666 122.811 163.666ZM141.36 165.905C139.809 165.905 138.474 165.539 137.354 164.807C136.235 164.075 135.373 163.066 134.77 161.781C134.167 160.496 133.866 159.029 133.866 157.378C133.866 155.698 134.175 154.216 134.792 152.931C135.416 151.639 136.285 150.63 137.398 149.905C138.517 149.173 139.824 148.807 141.317 148.807C142.48 148.807 143.528 149.022 144.461 149.453C145.394 149.884 146.158 150.487 146.754 151.262C147.35 152.037 147.72 152.942 147.863 153.975H145.322C145.128 153.222 144.698 152.554 144.03 151.973C143.37 151.384 142.48 151.09 141.36 151.09C140.369 151.09 139.501 151.348 138.754 151.865C138.015 152.375 137.437 153.096 137.021 154.029C136.612 154.955 136.407 156.042 136.407 157.291C136.407 158.569 136.608 159.682 137.01 160.629C137.419 161.577 137.993 162.312 138.733 162.836C139.479 163.36 140.355 163.622 141.36 163.622C142.02 163.622 142.62 163.508 143.158 163.278C143.696 163.048 144.152 162.718 144.525 162.287C144.899 161.857 145.164 161.34 145.322 160.737H147.863C147.72 161.713 147.364 162.592 146.797 163.375C146.237 164.15 145.494 164.767 144.568 165.227C143.65 165.679 142.58 165.905 141.36 165.905ZM140.154 165.474H142.264L142.092 166.336C142.652 166.422 143.165 166.655 143.632 167.036C144.098 167.423 144.331 168.037 144.331 168.877C144.331 169.803 143.947 170.556 143.179 171.138C142.419 171.726 141.295 172.021 139.809 172.021L139.723 170.341C140.391 170.341 140.943 170.233 141.381 170.018C141.826 169.81 142.049 169.458 142.049 168.963C142.049 168.468 141.866 168.13 141.5 167.951C141.134 167.771 140.541 167.649 139.723 167.585L140.154 165.474ZM156.444 165.948C155.396 165.948 154.445 165.751 153.591 165.356C152.737 164.954 152.059 164.376 151.556 163.622C151.054 162.862 150.802 161.943 150.802 160.866C150.802 159.919 150.989 159.151 151.362 158.562C151.736 157.966 152.235 157.5 152.859 157.162C153.483 156.825 154.173 156.574 154.926 156.409C155.687 156.236 156.452 156.1 157.22 155.999C158.225 155.87 159.039 155.773 159.664 155.709C160.295 155.637 160.755 155.518 161.042 155.353C161.336 155.188 161.483 154.901 161.483 154.492V154.406C161.483 153.344 161.193 152.518 160.611 151.929C160.037 151.341 159.165 151.047 157.995 151.047C156.782 151.047 155.831 151.312 155.142 151.843C154.453 152.375 153.968 152.942 153.688 153.545L151.276 152.683C151.707 151.678 152.281 150.896 152.999 150.336C153.724 149.769 154.514 149.374 155.368 149.152C156.229 148.922 157.076 148.807 157.909 148.807C158.44 148.807 159.05 148.872 159.739 149.001C160.435 149.123 161.107 149.378 161.753 149.765C162.406 150.153 162.948 150.738 163.378 151.52C163.809 152.303 164.024 153.351 164.024 154.664V165.561H161.483V163.321H161.354C161.182 163.68 160.895 164.064 160.493 164.473C160.091 164.882 159.556 165.23 158.889 165.517C158.221 165.805 157.406 165.948 156.444 165.948ZM156.832 163.666C157.837 163.666 158.684 163.468 159.373 163.073C160.069 162.679 160.593 162.169 160.945 161.544C161.304 160.92 161.483 160.263 161.483 159.574V157.248C161.376 157.378 161.139 157.496 160.773 157.604C160.414 157.704 159.998 157.794 159.524 157.873C159.057 157.945 158.601 158.009 158.156 158.067C157.719 158.117 157.363 158.16 157.09 158.196C156.43 158.282 155.813 158.422 155.239 158.616C154.671 158.802 154.212 159.086 153.86 159.466C153.516 159.84 153.344 160.349 153.344 160.995C153.344 161.878 153.67 162.546 154.323 162.998C154.984 163.443 155.82 163.666 156.832 163.666ZM154.765 147.041L152.784 146.955C152.784 145.857 153.096 144.96 153.72 144.263C154.352 143.56 155.131 143.208 156.057 143.208C156.466 143.208 156.828 143.28 157.144 143.424C157.46 143.56 157.762 143.718 158.049 143.897C158.336 144.077 158.63 144.238 158.932 144.382C159.24 144.518 159.588 144.586 159.976 144.586C160.385 144.586 160.73 144.428 161.01 144.113C161.297 143.79 161.44 143.402 161.44 142.95L163.378 143.122C163.378 144.242 163.063 145.132 162.431 145.792C161.806 146.453 161.031 146.783 160.105 146.783C159.61 146.783 159.201 146.715 158.878 146.578C158.555 146.435 158.268 146.273 158.016 146.094C157.765 145.914 157.5 145.756 157.22 145.62C156.94 145.476 156.595 145.405 156.186 145.405C155.777 145.405 155.436 145.566 155.163 145.889C154.898 146.205 154.765 146.589 154.765 147.041ZM175.381 165.905C173.888 165.905 172.578 165.55 171.451 164.839C170.331 164.129 169.455 163.134 168.824 161.857C168.199 160.579 167.887 159.086 167.887 157.378C167.887 155.655 168.199 154.151 168.824 152.866C169.455 151.581 170.331 150.584 171.451 149.873C172.578 149.162 173.888 148.807 175.381 148.807C176.874 148.807 178.18 149.162 179.3 149.873C180.427 150.584 181.303 151.581 181.927 152.866C182.559 154.151 182.875 155.655 182.875 157.378C182.875 159.086 182.559 160.579 181.927 161.857C181.303 163.134 180.427 164.129 179.3 164.839C178.18 165.55 176.874 165.905 175.381 165.905ZM175.381 163.622C176.515 163.622 177.448 163.332 178.18 162.75C178.913 162.169 179.454 161.404 179.806 160.457C180.158 159.509 180.334 158.483 180.334 157.378C180.334 156.272 180.158 155.242 179.806 154.287C179.454 153.333 178.913 152.561 178.18 151.973C177.448 151.384 176.515 151.09 175.381 151.09C174.247 151.09 173.314 151.384 172.582 151.973C171.849 152.561 171.307 153.333 170.956 154.287C170.604 155.242 170.428 156.272 170.428 157.378C170.428 158.483 170.604 159.509 170.956 160.457C171.307 161.404 171.849 162.169 172.582 162.75C173.314 163.332 174.247 163.622 175.381 163.622Z" fill="#203A4A"/>
<path d="M92.1702 67.3501C92.6302 66.2401 93.2902 65.2802 94.4802 64.8902C95.2102 64.6502 96.0002 64.5702 96.8902 64.4002C96.8902 63.9102 96.8702 63.2902 96.8902 62.6802C96.9602 60.9202 98.2602 59.5602 100.03 59.5502C104.67 59.5102 109.31 59.5302 113.96 59.5402C115 59.5402 115.84 59.9702 116.5 60.7902C116.6 60.9202 116.85 61.0401 117 61.0001C121.39 59.9901 125.59 58.4701 129.57 56.3701C133.11 54.5001 136.37 52.2502 139.14 49.3302C139.56 48.8802 139.94 48.3701 140.42 48.0001C141.81 46.9101 143.6 47.6102 143.92 49.3402C144 49.7802 144.04 50.2302 144.04 50.6702C144.04 65.1502 144.04 79.6301 144.04 94.1101C144.04 94.7701 143.95 95.4902 143.68 96.0902C143.01 97.6102 141.13 97.7301 139.95 96.3501C138.19 94.2901 136.16 92.5502 133.94 91.0402C129.07 87.7402 123.76 85.4402 118.05 84.0302C117.18 83.8102 116.63 83.8401 115.9 84.4901C115.28 85.0401 114.28 85.1602 113.36 85.5102C113.66 86.7602 114 88.2102 114.34 89.6402C115.29 93.5802 116.26 97.5202 117.19 101.46C117.8 104.04 116.55 105.91 113.93 106.13C112.26 106.27 110.56 106.24 108.9 106.08C106.75 105.88 105.2 104.4 104.69 102.29C103.37 96.8402 102.06 91.4002 100.74 85.9502C100.69 85.7302 100.62 85.5001 100.56 85.2501C99.3002 85.2801 98.2502 84.9001 97.4802 83.8701C96.7302 82.8701 96.9102 81.6902 96.8602 80.5602C96.2802 80.5202 95.7402 80.5402 95.2302 80.4402C93.6802 80.1302 92.6902 79.1602 92.1702 77.6902V67.3402V67.3501ZM140.7 52.5001C140.49 52.6801 140.35 52.7902 140.22 52.9202C137.46 55.5202 134.33 57.6002 130.97 59.3302C127.01 61.3702 122.9 62.9901 118.54 63.9801C117.61 64.1901 117.22 64.6802 117.22 65.5802C117.22 70.1102 117.22 74.6502 117.22 79.1802C117.22 80.0602 117.62 80.5402 118.49 80.7702C119.62 81.0602 120.76 81.3202 121.87 81.6702C127.55 83.4902 132.9 86.0002 137.65 89.6702C138.69 90.4702 139.66 91.3401 140.71 92.2201V52.4901L140.7 52.5001ZM113.88 62.8302C113.73 62.8102 113.65 62.7902 113.56 62.7902C109.26 62.7902 104.96 62.7902 100.66 62.7802C100.17 62.7802 100.12 63.0002 100.12 63.4002C100.12 69.3602 100.12 75.3202 100.12 81.2802C100.12 81.4902 100.12 81.6902 100.12 81.9302H113.87V62.8302H113.88ZM114.14 102.86C112.71 96.9301 111.31 91.1002 109.91 85.2902H103.98C104.1 85.8102 104.2 86.2802 104.31 86.7602C105.5 91.6702 106.69 96.5701 107.86 101.48C108.04 102.22 108.47 102.8 109.19 102.84C110.77 102.93 112.37 102.87 114.13 102.87L114.14 102.86ZM95.4702 72.5302C95.4702 73.8902 95.4902 75.2501 95.4602 76.6201C95.4502 77.1801 95.7802 77.2802 96.1802 77.2602C96.5702 77.2502 96.9002 77.1701 96.9002 76.6001C96.8702 73.9201 96.8702 71.2402 96.9002 68.5602C96.9002 68.0102 96.6502 67.8601 96.1702 67.8501C95.6602 67.8501 95.4602 68.0402 95.4702 68.5702C95.5002 69.8902 95.4702 71.2102 95.4702 72.5302Z" fill="#203A4A"/>
<path d="M157.59 74.7601C157.42 75.7601 157.28 76.7601 157.08 77.7601C156.5 80.7201 155.32 83.4301 153.62 85.9001C153.09 86.6701 152.12 86.8302 151.36 86.3402C150.65 85.8802 150.41 84.8602 150.91 84.0802C151.88 82.5702 152.73 81.0101 153.26 79.2901C155.11 73.3501 154.56 67.6801 151.26 62.3501C150.93 61.8201 150.57 61.3001 150.74 60.6401C150.91 60.0001 151.27 59.5301 151.96 59.4001C152.7 59.2601 153.36 59.4701 153.72 60.1301C154.56 61.6501 155.43 63.1701 156.11 64.7601C156.91 66.6401 157.31 68.6502 157.47 70.6902C157.48 70.8602 157.55 71.0202 157.59 71.1802V74.7601Z" fill="#203A4A"/>
<path d="M150.82 73.0204C150.77 75.9304 150.01 78.6905 148.32 81.1805C147.91 81.7805 147.36 82.0505 146.62 81.9305C145.99 81.8305 145.57 81.4704 145.39 80.8704C145.21 80.2904 145.33 79.7504 145.66 79.2404C147.23 76.8404 147.77 74.2104 147.4 71.3804C147.19 69.7204 146.68 68.1504 145.73 66.7504C145.41 66.2704 145.2 65.7705 145.38 65.1905C145.57 64.5905 145.92 64.1104 146.59 64.0204C147.34 63.9104 147.95 64.1405 148.4 64.8105C150.02 67.2805 150.78 70.0004 150.82 73.0204Z" fill="#203A4A"/>
</g>
<defs>
<filter id="filter0_d_1004_1030" x="0" y="0" width="247.22" height="235.25" filterUnits="userSpaceOnUse" color-interpolation-filters="sRGB">
<feFlood flood-opacity="0" result="BackgroundImageFix"/>
<feColorMatrix in="SourceAlpha" type="matrix" values="0 0 0 0 0 0 0 0 0 0 0 0 0 0 0 0 0 0 127 0" result="hardAlpha"/>
<feOffset dx="4.06" dy="8.12"/>
<feGaussianBlur stdDeviation="2.03"/>
<feColorMatrix type="matrix" values="0 0 0 0 0.113725 0 0 0 0 0.113725 0 0 0 0 0.105882 0 0 0 0.2 0"/>
<feBlend mode="normal" in2="BackgroundImageFix" result="effect1_dropShadow_1004_1030"/>
<feBlend mode="normal" in="SourceGraphic" in2="effect1_dropShadow_1004_1030" result="shape"/>
</filter>
<clipPath id="clip0_1004_1030">
<rect width="252" height="233" fill="white"/>
</clipPath>
</defs>
</svg>
