<svg width="84" height="101" viewBox="0 0 84 101" fill="none" xmlns="http://www.w3.org/2000/svg">
<path d="M59.8389 76.6139C64.4302 73.6623 68.1499 73.54 71.0789 76.0216C72.8399 77.5162 74.1248 79.3398 74.1068 81.859C74.0709 87.0854 74.026 92.3119 73.9631 97.5383C73.9451 99.4089 72.7232 99.9352 71.2317 99.9916C69.6503 100.048 68.653 99.3995 68.6261 97.5195C68.5452 93.1673 68.3835 88.815 68.2577 84.4628C68.1858 81.859 67.0447 80.2892 65.0411 80.026C62.9836 79.7534 60.4678 81.5206 60.2971 83.8236C59.9826 88.0724 59.9467 92.3495 59.8928 96.6265C59.8659 98.7603 58.9943 99.8976 56.9458 99.9822C55.2656 100.048 54.0886 99.39 54.0617 97.463C53.9718 90.8172 53.855 84.1809 53.9718 77.5351C53.9898 76.5293 54.9691 74.9501 55.8047 74.6869C56.793 74.3767 58.1138 75.1662 59.2549 75.5986C59.5244 75.702 59.6412 76.2567 59.8389 76.6233V76.6139Z" fill="#213846"/>
<path d="M81.5014 93.9189C82.9389 94.0411 83.9632 94.8307 83.9991 96.6825C84.0351 98.5155 82.8311 99.8504 81.106 99.8974C79.6056 99.935 78.2039 98.4874 78.3477 96.8236C78.5004 95.0376 79.4528 93.9471 81.5014 93.9189Z" fill="#213846"/>
<path d="M38.5538 0.00384679C21.5545 0.304647 7.00807 15.7299 7.61904 32.7627C7.12487 50.1057 21.5815 65.127 38.1405 65.2868C56.6223 65.4654 69.6593 49.899 69.9288 33.543C70.2703 13.004 53.3069 -0.259353 38.5538 0.00384679ZM54.8074 37.7542C53.7472 37.8294 52.687 37.773 51.6267 37.7824C49.4255 37.7918 47.2332 37.8482 45.0319 37.8106C43.6931 37.7918 43.154 38.3275 43.181 39.7845C43.2349 42.7173 43.181 45.6502 43.1181 48.583C43.0462 51.7978 41.3301 53.6873 38.6167 53.6215C35.9842 53.5557 34.4028 51.6756 34.3938 48.583C34.3848 45.7254 34.295 42.8677 34.4118 40.0195C34.4747 38.3275 33.8637 37.7918 32.3183 37.82C29.2096 37.8764 26.1008 37.8294 22.9921 37.773C20.2068 37.726 18.4008 35.7989 18.4458 33.0165C18.4907 30.3469 20.2427 28.5609 23.01 28.5233C26.559 28.4669 30.117 28.5139 34.3848 28.5139C34.3848 24.4155 34.3669 20.6274 34.3848 16.8392C34.4028 13.9064 36.0021 12.0923 38.5808 12.0171C40.9078 11.9513 42.8755 13.7654 43.0282 16.4444C43.2079 19.5276 43.154 22.6295 43.199 25.7221C43.2079 26.5681 43.199 27.4141 43.199 28.5327C47.2511 28.5327 51.0248 28.4575 54.7894 28.5609C57.2603 28.6361 58.9584 30.723 58.8955 33.2892C58.8326 35.8742 57.2872 37.5944 54.8074 37.7636V37.7542Z" fill="#213846"/>
<path d="M23.4863 87.7996C23.2258 84.3498 20.9976 82.3571 18.4279 80.4113C21.4648 75.4105 21.5995 71.9701 18.8322 68.8305C16.613 66.3207 13.7019 65.7473 10.5392 65.7943C6.32533 65.8601 6.32533 65.766 6.15462 61.5078C6.05578 59.1108 4.90572 57.729 2.97398 57.7102C0.889497 57.6914 0 58.8006 0 61.4796C0 72.6562 3.83914e-06 83.8421 0.0179735 95.0187C0.0179735 95.8083 0.026954 96.6073 0.125787 97.3875C0.323453 99.0419 1.19498 99.9163 2.85717 99.8975C6.34329 99.8693 9.8384 100.029 13.3155 99.841C19.6498 99.4932 23.9715 94.248 23.4863 87.7902V87.7996ZM6.17258 76.7358C6.27141 75.1848 6.11866 72.4212 6.55892 72.3084C8.45472 71.8384 10.5572 71.9699 12.5339 72.2237C14.0792 72.4305 14.7172 73.6996 14.6273 75.3728C14.5375 77.1212 13.5312 78.0236 12.0666 78.1646C10.2158 78.3432 8.32895 78.2116 6.27142 78.2116C6.21752 77.516 6.13663 77.1212 6.16358 76.7358H6.17258ZM14.4835 93.3457C12.1385 93.8157 9.69462 93.7967 7.28669 93.8249C6.91831 93.8249 6.29838 92.9978 6.21752 92.4808C6.04681 91.3998 6.16358 90.2718 6.16358 89.172C6.16358 85.8945 7.76291 84.3184 10.9615 84.4437C11.869 84.4813 12.7764 84.5189 13.6659 84.6881C15.6246 85.0547 16.9813 86.2205 17.2778 88.3449C17.6283 90.8265 16.604 92.9227 14.4835 93.3457Z" fill="#213846"/>
<path d="M36.8649 89.896C40.0455 89.802 43.2261 89.7364 46.4068 89.5672C49.2549 89.4074 50.3691 87.9972 50.1984 84.9798C49.7311 76.8582 41.4831 71.7259 34.4389 75.1663C27.88 78.3717 25.4631 86.7848 29.066 93.5622C33.1901 101.327 42.2019 101.308 47.2873 98.1116C48.7877 97.1716 49.5515 95.8839 48.635 94.1637C47.7275 92.4529 46.272 92.124 44.5289 92.8666C43.2711 93.4024 41.9862 93.9193 40.6655 94.2013C37.7993 94.8217 35.1308 93.0544 34.3671 89.9054C35.2476 89.9054 36.0562 89.9242 36.8559 89.9054L36.8649 89.896ZM33.9628 84.8578C34.5468 81.8592 35.9125 80.4114 38.3024 80.0166C40.5037 79.65 42.121 80.6654 43.2711 82.536C44.0438 83.7862 44.1066 84.8389 42.2558 84.8483C39.5513 84.8671 36.8379 84.8483 33.9628 84.8483V84.8578Z" fill="#213846"/>
</svg>
